<svg width="32" height="32" viewBox="0 0 32 32" fill="none" xmlns="http://www.w3.org/2000/svg">
<path d="M22.667 18.6668C23.4034 18.6668 24.0003 18.0699 24.0003 17.3335C24.0003 16.5971 23.4034 16.0002 22.667 16.0002C21.9306 16.0002 21.3337 16.5971 21.3337 17.3335C21.3337 18.0699 21.9306 18.6668 22.667 18.6668Z" fill="#999999"/>
<path d="M22.667 24.0002C23.4034 24.0002 24.0003 23.4032 24.0003 22.6668C24.0003 21.9305 23.4034 21.3335 22.667 21.3335C21.9306 21.3335 21.3337 21.9305 21.3337 22.6668C21.3337 23.4032 21.9306 24.0002 22.667 24.0002Z" fill="#999999"/>
<path d="M17.3337 17.3335C17.3337 18.0699 16.7367 18.6668 16.0003 18.6668C15.2639 18.6668 14.667 18.0699 14.667 17.3335C14.667 16.5971 15.2639 16.0002 16.0003 16.0002C16.7367 16.0002 17.3337 16.5971 17.3337 17.3335Z" fill="#999999"/>
<path d="M17.3337 22.6668C17.3337 23.4032 16.7367 24.0002 16.0003 24.0002C15.2639 24.0002 14.667 23.4032 14.667 22.6668C14.667 21.9305 15.2639 21.3335 16.0003 21.3335C16.7367 21.3335 17.3337 21.9305 17.3337 22.6668Z" fill="#999999"/>
<path d="M9.33366 18.6668C10.07 18.6668 10.667 18.0699 10.667 17.3335C10.667 16.5971 10.07 16.0002 9.33366 16.0002C8.59728 16.0002 8.00033 16.5971 8.00033 17.3335C8.00033 18.0699 8.59728 18.6668 9.33366 18.6668Z" fill="#999999"/>
<path d="M9.33366 24.0002C10.07 24.0002 10.667 23.4032 10.667 22.6668C10.667 21.9305 10.07 21.3335 9.33366 21.3335C8.59728 21.3335 8.00033 21.9305 8.00033 22.6668C8.00033 23.4032 8.59728 24.0002 9.33366 24.0002Z" fill="#999999"/>
<path fill-rule="evenodd" clip-rule="evenodd" d="M9.33366 2.3335C9.88594 2.3335 10.3337 2.78121 10.3337 3.3335V4.35046C11.2163 4.33348 12.1888 4.33349 13.2583 4.3335H18.7422C19.8117 4.33349 20.7843 4.33348 21.667 4.35046V3.3335C21.667 2.78121 22.1147 2.3335 22.667 2.3335C23.2193 2.3335 23.667 2.78121 23.667 3.3335V4.43628C24.0136 4.4627 24.3418 4.49592 24.6524 4.53768C26.2156 4.74785 27.4808 5.19067 28.4787 6.18849C29.4765 7.18631 29.9193 8.45157 30.1295 10.0148C30.3337 11.5337 30.3337 13.4746 30.3337 15.9249V18.742C30.3337 21.1924 30.3337 23.1333 30.1295 24.6522C29.9193 26.2154 29.4765 27.4807 28.4787 28.4785C27.4808 29.4763 26.2156 29.9191 24.6524 30.1293C23.1334 30.3335 21.1926 30.3335 18.7423 30.3335H13.2584C10.8081 30.3335 8.86724 30.3335 7.3483 30.1293C5.78507 29.9191 4.5198 29.4763 3.52198 28.4785C2.52417 27.4807 2.08134 26.2154 1.87117 24.6522C1.66696 23.1332 1.66697 21.1924 1.66699 18.7421V15.9249C1.66697 13.4746 1.66696 11.5338 1.87117 10.0148C2.08134 8.45157 2.52417 7.18631 3.52198 6.18849C4.5198 5.19067 5.78507 4.74785 7.3483 4.53768C7.65886 4.49592 7.98707 4.4627 8.33366 4.43628V3.3335C8.33366 2.78121 8.78138 2.3335 9.33366 2.3335ZM7.61479 6.51984C6.27334 6.7002 5.50048 7.03842 4.9362 7.6027C4.37192 8.16698 4.03369 8.93984 3.85334 10.2813C3.82279 10.5085 3.79726 10.7476 3.7759 11.0002H28.2247C28.2034 10.7476 28.1779 10.5085 28.1473 10.2813C27.967 8.93984 27.6287 8.16698 27.0645 7.6027C26.5002 7.03842 25.7273 6.70019 24.3859 6.51984C23.0156 6.33562 21.2094 6.3335 18.667 6.3335H13.3337C10.7912 6.3335 8.98501 6.33562 7.61479 6.51984ZM3.66699 16.0002C3.66699 14.8615 3.66742 13.8705 3.68444 13.0002H28.3162C28.3332 13.8705 28.3337 14.8615 28.3337 16.0002V18.6668C28.3337 21.2093 28.3315 23.0155 28.1473 24.3857C27.967 25.7271 27.6287 26.5 27.0645 27.0643C26.5002 27.6286 25.7273 27.9668 24.3859 28.1472C23.0156 28.3314 21.2094 28.3335 18.667 28.3335H13.3337C10.7912 28.3335 8.98501 28.3314 7.61479 28.1472C6.27334 27.9668 5.50048 27.6286 4.9362 27.0643C4.37192 26.5 4.03369 25.7271 3.85334 24.3857C3.66912 23.0155 3.66699 21.2093 3.66699 18.6668V16.0002Z" fill="#999999"/>
</svg>
