<svg width="24" height="24" viewBox="0 0 24 24" fill="none" xmlns="http://www.w3.org/2000/svg">
<path fill-rule="evenodd" clip-rule="evenodd" d="M15.601 2.40018C15.3812 2.18042 15.1047 2.19008 14.9531 2.2102C14.8097 2.22921 14.638 2.27808 14.4744 2.32464L14.3484 2.36045L14.246 2.29581C14.1074 2.20828 13.9585 2.11425 13.8261 2.05669C13.6767 1.99178 13.4246 1.91791 13.1597 2.05713C12.8999 2.1937 12.8144 2.43817 12.779 2.59373C12.7468 2.73529 12.733 2.91231 12.72 3.08065L12.71 3.20815L12.7092 3.21877L12.5976 3.31062C12.4643 3.42029 12.326 3.5341 12.2279 3.64136C12.124 3.75498 11.9637 3.96845 12.0044 4.26569C12.0465 4.57309 12.2691 4.73247 12.4082 4.80961C12.5342 4.87947 12.7 4.94064 12.8545 4.99764L12.9633 5.03785L13.0035 5.14671C13.0605 5.30122 13.1217 5.46702 13.1916 5.59298C13.2687 5.73208 13.4281 5.95467 13.7355 5.99676C14.0327 6.03746 14.2462 5.87723 14.3598 5.7733C14.4671 5.6752 14.5809 5.53687 14.6906 5.40357L14.7824 5.292L14.793 5.29116L14.9205 5.28121C15.0889 5.26813 15.2659 5.25438 15.4075 5.2222C15.563 5.18683 15.8075 5.10132 15.9441 4.84149C16.0833 4.5766 16.0094 4.32448 15.9445 4.17511C15.8869 4.0427 15.7929 3.89383 15.7054 3.75527L15.6407 3.6528L15.6765 3.5268C15.7231 3.36319 15.772 3.19146 15.791 3.04811C15.8111 2.89644 15.8208 2.61995 15.601 2.40018ZM14.7015 3.2997L14.6235 3.32185L14.6029 3.32789C14.5275 3.3503 14.3704 3.39699 14.2067 3.37457C14.0391 3.35162 13.9004 3.26159 13.8361 3.21989L13.819 3.20883L13.718 3.14512L13.707 3.28598L13.7055 3.30751C13.7002 3.3868 13.6894 3.54676 13.6131 3.69208C13.5377 3.83547 13.4134 3.93559 13.3506 3.98623L13.3333 4.00021L13.2426 4.07495L13.3201 4.10358L13.3391 4.11042C13.4108 4.13579 13.569 4.19182 13.6892 4.31201C13.8094 4.4322 13.8654 4.5904 13.8908 4.66204L13.8976 4.68113L13.9262 4.75862L14.001 4.66783L14.015 4.65059C14.0656 4.58774 14.1657 4.46348 14.3091 4.38811C14.4544 4.31174 14.6144 4.30102 14.6937 4.29571L14.7152 4.29419L14.8561 4.28319L14.7923 4.1822L14.7813 4.16504C14.7396 4.10078 14.6496 3.96206 14.6266 3.7945C14.6042 3.63074 14.6509 3.47363 14.6733 3.39824L14.6793 3.37765L14.7015 3.2997Z" fill="#999999"/>
<path d="M10.4346 3.17016C10.6507 2.81675 10.5393 2.35512 10.1859 2.13907C9.83253 1.92302 9.3709 2.03437 9.15485 2.38778C8.63665 3.23544 8.76652 4.32775 9.46904 5.03027L9.56692 5.12815C9.76459 5.32581 9.83747 5.61619 9.75659 5.88378C9.63674 6.28027 9.861 6.69885 10.2575 6.81871C10.654 6.93856 11.0726 6.71429 11.1924 6.3178C11.4333 5.52092 11.2162 4.65615 10.6276 4.06749L10.5297 3.96961C10.3172 3.75707 10.2779 3.42661 10.4346 3.17016Z" fill="#999999"/>
<path d="M7.6858 3.94057C7.47633 3.7311 7.13671 3.7311 6.92724 3.94057C6.71777 4.15004 6.71777 4.48965 6.92724 4.69912C7.13671 4.90859 7.47633 4.90859 7.6858 4.69912C7.89527 4.48965 7.89527 4.15004 7.6858 3.94057Z" fill="#999999"/>
<path d="M18.2771 5.6039C18.3583 5.19773 18.0949 4.80262 17.6887 4.72138C17.2826 4.64015 16.8874 4.90356 16.8062 5.30973L16.6622 6.02967C16.5696 6.49265 16.236 6.87052 15.7881 7.01983C14.8295 7.33936 14.1157 8.14802 13.9175 9.13884L13.7735 9.85877C13.6923 10.2649 13.9557 10.6601 14.3619 10.7413C14.768 10.8225 15.1631 10.5591 15.2444 10.1529L15.3884 9.43301C15.481 8.97003 15.8145 8.59216 16.2625 8.44285C17.221 8.12332 17.9349 7.31466 18.1331 6.32384L18.2771 5.6039Z" fill="#999999"/>
<path fill-rule="evenodd" clip-rule="evenodd" d="M22.5231 8.84204C22.779 9.39595 22.6063 10.0248 22.1392 10.4919C21.8683 10.7628 21.5053 10.8855 21.182 10.943C20.8513 11.0018 20.5017 11.003 20.1955 10.9833C19.8862 10.9636 19.6027 10.9213 19.3977 10.8845C19.2946 10.8659 19.2101 10.8486 19.1505 10.8356L19.1042 10.8253L19.0803 10.8198L19.0606 10.8151L19.0548 10.8137L19.053 10.8133C19.0529 10.8133 19.0518 10.813 19.172 10.3277L19.0518 10.813C18.8718 10.7684 18.7311 10.6276 18.6866 10.4476L18.6859 10.4448L18.6845 10.439L18.6798 10.4193C18.6759 10.4026 18.6705 10.3789 18.664 10.3491C18.6511 10.2895 18.6337 10.205 18.6152 10.102C18.5783 9.89694 18.5361 9.61337 18.5163 9.30412C18.4967 8.99788 18.4978 8.64831 18.5566 8.31761C18.6141 7.99434 18.7368 7.63133 19.0077 7.36045C19.4748 6.89332 20.1037 6.72065 20.6576 6.97651C21.0777 7.17058 21.351 7.56336 21.454 8.04565C21.9363 8.14858 22.329 8.42187 22.5231 8.84204ZM19.5956 9.90398C19.7737 9.93537 20.009 9.96937 20.2594 9.98539C20.5228 10.0023 20.7847 9.99796 21.0069 9.95845C21.2365 9.91761 21.3678 9.84908 21.4321 9.78482C21.6748 9.54207 21.6563 9.35009 21.6153 9.26137C21.5708 9.16498 21.4111 8.99855 21.0013 8.99964C20.8682 9 20.7405 8.94729 20.6464 8.8532C20.5523 8.7591 20.4996 8.63138 20.5 8.49831C20.5011 8.0885 20.3346 7.92886 20.2382 7.88434C20.1495 7.84336 19.9576 7.8248 19.7148 8.06756C19.6505 8.13181 19.582 8.26307 19.5412 8.4927C19.5017 8.7149 19.4974 8.97686 19.5142 9.24024C19.5303 9.49059 19.5642 9.72595 19.5956 9.90398Z" fill="#999999"/>
<path d="M20.3304 13.7295C20.6258 13.4675 21.0464 13.4011 21.4082 13.5593L21.6996 13.6867C22.0792 13.8527 22.5213 13.6795 22.6873 13.3C22.8532 12.9205 22.6801 12.4783 22.3006 12.3123L22.0091 12.1849C21.1117 11.7925 20.068 11.9573 19.3352 12.6072C19.009 12.8964 18.5344 12.9445 18.1568 12.7265L17.944 12.6036C17.5853 12.3965 17.1266 12.5194 16.9195 12.8781C16.7123 13.2368 16.8353 13.6955 17.194 13.9026L17.4068 14.0255C18.3435 14.5663 19.5212 14.4471 20.3304 13.7295Z" fill="#999999"/>
<path d="M19.0579 15.3131C19.2673 15.1037 19.6069 15.1037 19.8164 15.3131C20.0259 15.5226 20.0259 15.8622 19.8164 16.0717C19.6069 16.2812 19.2673 16.2812 19.0579 16.0717C18.8484 15.8622 18.8484 15.5226 19.0579 15.3131Z" fill="#999999"/>
<path d="M12.9153 7.15689C12.7058 6.94742 12.3662 6.94742 12.1567 7.15689C11.9473 7.36636 11.9473 7.70597 12.1567 7.91544C12.3662 8.12491 12.7058 8.12491 12.9153 7.91544C13.1248 7.70597 13.1248 7.36636 12.9153 7.15689Z" fill="#999999"/>
<path d="M17.1567 10.1569C17.3662 9.94742 17.7058 9.94742 17.9153 10.1569C18.1248 10.3664 18.1248 10.706 17.9153 10.9154C17.7058 11.1249 17.3662 11.1249 17.1567 10.9154C16.9473 10.706 16.9473 10.3664 17.1567 10.1569Z" fill="#999999"/>
<path fill-rule="evenodd" clip-rule="evenodd" d="M9.63847 6.88473C10.2248 7.31945 10.8994 7.99407 11.718 8.81276L15.1857 12.2804C16.0044 13.0991 16.679 13.7737 17.1137 14.36C17.5629 14.9658 17.8793 15.639 17.6963 16.4143C17.5133 17.1896 16.9291 17.6502 16.2565 17.9912C15.6055 18.3212 14.7004 18.6229 13.6021 18.9889L8.41179 20.719C7.08192 21.1623 6.00274 21.5221 5.16592 21.671C4.32152 21.8212 3.46466 21.806 2.82856 21.1699C2.19245 20.5338 2.1773 19.6769 2.32751 18.8325C2.47638 17.9957 2.83615 16.9165 3.27949 15.5865L5.00953 10.3964C5.37562 9.29803 5.67728 8.39297 6.0073 7.74194C6.34826 7.06932 6.80887 6.48517 7.58417 6.30214C8.35947 6.11912 9.0327 6.43561 9.63847 6.88473ZM8.7451 8.08968C8.72762 8.07672 8.7105 8.06423 8.69373 8.05218C8.68222 8.11445 8.66999 8.18137 8.65715 8.25262C8.57215 8.72423 8.4608 9.38373 8.3555 10.1341C8.14288 11.6495 7.96305 13.4814 8.0551 14.8852C8.11083 15.7351 8.29285 16.8345 8.46659 17.7416C8.55264 18.1908 8.63512 18.585 8.69604 18.8667C8.70906 18.9269 8.72108 18.9819 8.73194 19.0312L11.3666 18.1529C11.2974 17.9474 11.2144 17.6827 11.1315 17.3746C10.9325 16.6348 10.7267 15.6173 10.7267 14.5552C10.7267 13.4399 10.9316 12.4226 11.1325 11.6905C11.2334 11.3225 11.3348 11.0217 11.4118 10.8105C11.4298 10.7613 11.4464 10.7169 11.4615 10.6775L10.7017 9.91776C9.82753 9.04358 9.23121 8.45009 8.7451 8.08968ZM6.41272 10.9303C6.62169 10.3034 6.79551 9.78369 6.95384 9.35331C6.92588 9.53684 6.89777 9.72818 6.87006 9.92569C6.65492 11.4589 6.45566 13.4179 6.55831 14.9833C6.62043 15.9306 6.8175 17.1056 6.99338 18.0238C7.08214 18.4872 7.16712 18.8933 7.22994 19.1838C7.25898 19.318 7.28333 19.4278 7.30119 19.5073C6.26037 19.851 5.4936 20.0891 4.90321 20.1941C4.18243 20.3224 3.983 20.203 3.88922 20.1092C3.79544 20.0155 3.67611 19.816 3.80432 19.0953C3.93158 18.3799 4.25425 17.4057 4.72323 15.9987L6.41272 10.9303ZM13.0682 17.5857L12.7897 17.6786C12.7287 17.498 12.6544 17.2616 12.58 16.985C12.5262 16.7848 12.4729 16.566 12.4247 16.334C12.3118 15.7901 12.2267 15.1738 12.2267 14.5552C12.2267 13.615 12.4008 12.7369 12.579 12.0874C12.6009 12.0078 12.6227 11.932 12.6441 11.8602L14.0807 13.2968C14.9549 14.1709 15.5484 14.7673 15.9088 15.2534C16.2626 15.7306 16.2674 15.9387 16.2364 16.0697C16.2055 16.2006 16.1082 16.3846 15.5783 16.6532C15.0386 16.9269 14.241 17.1948 13.0682 17.5857Z" fill="#999999"/>
</svg>
