<svg width="120" height="120" viewBox="0 0 120 120" fill="none" xmlns="http://www.w3.org/2000/svg">
<g clip-path="url(#clip0_5892_21831)">
<path d="M97.3851 104.516L92.9045 91.0724C91.3387 86.3789 87.3438 82.9143 82.4742 82.0279L69.5393 79.6743V78.6718C71.7903 77.3653 73.749 75.6176 75.309 73.5485H79.2168C82.418 73.5485 85.0232 70.9434 85.0232 67.7421V44.5163C85.0232 30.6427 73.7355 19.355 59.8619 19.355C45.9884 19.355 34.7006 30.6427 34.7006 44.5163V58.0647C34.7006 61.7963 37.3542 64.9182 40.8729 65.646C41.9587 71.2085 45.4348 75.9156 50.1845 78.6718V79.6743L37.2477 82.0279C32.38 82.9143 28.3832 86.3789 26.8193 91.0724L26.0451 93.3969L19.4529 86.8047C18.698 86.0498 18.698 84.8208 19.4529 84.0659L27.098 76.4227L12.7484 62.073L4.10837 70.713C1.54966 73.2718 0.140625 76.6743 0.140625 80.2937C0.140625 83.913 1.54966 87.3137 4.10837 89.8724L30.2664 116.03C32.8251 118.589 36.2277 120 39.8471 120C43.4664 120 46.8671 118.589 49.3658 116.089L58.7935 107.45L55.8535 104.516H97.3851ZM81.1522 67.7421C81.1522 68.8105 80.2832 69.6776 79.2168 69.6776H77.589C78.1503 68.3982 78.5761 67.0492 78.8509 65.646C79.6793 65.4737 80.4419 65.1447 81.1522 64.7305V67.7421ZM79.2168 61.3976V54.7318C80.3684 55.4034 81.1522 56.6382 81.1522 58.0647C81.1522 59.4911 80.3684 60.7259 79.2168 61.3976ZM40.5071 61.3976C39.3555 60.7259 38.5716 59.4911 38.5716 58.0647C38.5716 56.6382 39.3555 55.4034 40.5071 54.7318V61.3976ZM40.5071 48.3872V50.5976C39.818 50.7776 39.1716 51.0485 38.5716 51.3989V44.5163C38.5716 32.7776 48.1232 23.2259 59.8619 23.2259C71.6006 23.2259 81.1522 32.7776 81.1522 44.5163V51.3989C80.5522 51.0485 79.9058 50.7756 79.2168 50.5976V48.3872H77.2813C71.558 48.3872 66.1774 46.1576 62.1284 42.1105L59.8619 39.844L57.5955 42.1105C53.5464 46.1576 48.1658 48.3872 42.4426 48.3872H40.5071ZM44.378 61.9356V52.1847C50.1903 51.7472 55.6097 49.3492 59.8619 45.306C64.1142 49.3492 69.5335 51.7492 75.3458 52.1847V61.9356C75.3458 64.7576 74.5755 67.3976 73.2516 69.6776H59.8619V73.5485H70.0697C67.3406 75.9505 63.7735 77.4195 59.8619 77.4195C51.3245 77.4195 44.378 70.473 44.378 61.9356ZM65.6684 80.3982V80.4892L59.8619 86.2956L54.0555 80.4892V80.3982C55.8903 80.975 57.8393 81.2905 59.8619 81.2905C61.8845 81.2905 63.8335 80.975 65.6684 80.3982ZM30.489 92.2956C31.6058 88.9434 34.4606 86.4679 37.9387 85.833L51.4677 83.375L59.8619 91.7692L68.2542 83.3769L81.7813 85.835C85.2593 86.4698 88.1142 88.9434 89.2309 92.2976L92.0161 100.645H51.9826L44.4438 93.1066L36.0671 100.684C35.3374 101.418 34.0619 101.418 33.3303 100.684L29.1032 96.4569L30.489 92.2956ZM12.7464 67.5466L21.6226 76.4227L19.5206 78.5247L10.6445 69.6485L12.7464 67.5466ZM46.6851 113.298C44.858 115.121 42.4271 116.129 39.8432 116.129C37.2593 116.129 34.8284 115.121 32.9993 113.294L6.84127 87.1376C5.01417 85.3105 4.00772 82.8795 4.00772 80.2956C4.00772 77.7098 5.01417 75.2789 6.84127 73.4518L7.90579 72.3872L16.7819 81.2634L16.7122 81.333C14.4497 83.5976 14.4497 87.2808 16.7122 89.5453L30.5916 103.425C31.689 104.52 33.1464 105.126 34.6987 105.126C36.2509 105.126 37.7084 104.522 38.7342 103.492L38.8793 103.363L47.7961 112.28L46.6851 113.298ZM50.6529 109.659L41.7555 100.761L44.3122 98.4505L53.1942 107.332L50.6529 109.659Z" fill="url(#paint0_linear_5892_21831)"/>
<path d="M114.056 0H86.9588C83.7575 0 81.1523 2.60516 81.1523 5.80645V21.2903C81.1523 24.4916 83.7575 27.0968 86.9588 27.0968H92.1285L90.1272 38.7697L108.805 27.0968H114.056C117.257 27.0968 119.862 24.4916 119.862 21.2903V5.80645C119.862 2.60516 117.257 0 114.056 0ZM115.991 21.2903C115.991 22.3568 115.122 23.2258 114.056 23.2258H107.694L95.4014 30.9077L96.7194 23.2258H86.9588C85.8923 23.2258 85.0233 22.3568 85.0233 21.2903V5.80645C85.0233 4.74 85.8923 3.87097 86.9588 3.87097H114.056C115.122 3.87097 115.991 4.74 115.991 5.80645V21.2903Z" fill="url(#paint1_linear_5892_21831)"/>
<path d="M112.12 7.7417H88.8945V11.6127H112.12V7.7417Z" fill="url(#paint2_linear_5892_21831)"/>
<path d="M104.378 15.4839H88.8945V19.3549H104.378V15.4839Z" fill="url(#paint3_linear_5892_21831)"/>
<path d="M112.119 15.4839H108.248V19.3549H112.119V15.4839Z" fill="url(#paint4_linear_5892_21831)"/>
<path d="M59.8619 5.80664C34.5729 5.80664 12.789 23.2995 7.12577 47.7002L3.45803 41.586L0.138672 43.5776L6.9419 54.9137L18.278 48.1105L16.2864 44.7912L11.0413 47.9383C16.5264 25.6163 36.5993 9.67761 59.8619 9.67761C64.9464 9.67761 69.9632 10.4324 74.7729 11.9228L75.9187 8.226C70.7374 6.61954 65.3354 5.80664 59.8619 5.80664Z" fill="url(#paint5_linear_5892_21831)"/>
<path d="M118.922 42.8555L107.585 36.0522L100.784 47.3903L104.104 49.3819L107.491 43.7361C109.273 48.9522 110.185 54.4084 110.185 60C110.185 71.5103 106.198 82.7632 98.9609 91.6839L101.967 94.1226C109.763 84.5148 114.056 72.3948 114.056 60C114.056 54.0793 113.102 48.2981 111.242 42.7626L116.93 46.1748L118.922 42.8555Z" fill="url(#paint6_linear_5892_21831)"/>
</g>
<defs>
<linearGradient id="paint0_linear_5892_21831" x1="48.7629" y1="19.355" x2="48.7629" y2="120" gradientUnits="userSpaceOnUse">
<stop stop-color="#D580F2"/>
<stop offset="1" stop-color="#7B4A8C"/>
</linearGradient>
<linearGradient id="paint1_linear_5892_21831" x1="100.507" y1="0" x2="100.507" y2="38.7697" gradientUnits="userSpaceOnUse">
<stop stop-color="#D580F2"/>
<stop offset="1" stop-color="#7B4A8C"/>
</linearGradient>
<linearGradient id="paint2_linear_5892_21831" x1="100.507" y1="7.7417" x2="100.507" y2="11.6127" gradientUnits="userSpaceOnUse">
<stop stop-color="#D580F2"/>
<stop offset="1" stop-color="#7B4A8C"/>
</linearGradient>
<linearGradient id="paint3_linear_5892_21831" x1="96.6365" y1="15.4839" x2="96.6365" y2="19.3549" gradientUnits="userSpaceOnUse">
<stop stop-color="#D580F2"/>
<stop offset="1" stop-color="#7B4A8C"/>
</linearGradient>
<linearGradient id="paint4_linear_5892_21831" x1="110.184" y1="15.4839" x2="110.184" y2="19.3549" gradientUnits="userSpaceOnUse">
<stop stop-color="#D580F2"/>
<stop offset="1" stop-color="#7B4A8C"/>
</linearGradient>
<linearGradient id="paint5_linear_5892_21831" x1="38.0287" y1="5.80664" x2="38.0287" y2="54.9137" gradientUnits="userSpaceOnUse">
<stop stop-color="#D580F2"/>
<stop offset="1" stop-color="#7B4A8C"/>
</linearGradient>
<linearGradient id="paint6_linear_5892_21831" x1="108.941" y1="36.0522" x2="108.941" y2="94.1226" gradientUnits="userSpaceOnUse">
<stop stop-color="#D580F2"/>
<stop offset="1" stop-color="#7B4A8C"/>
</linearGradient>
<clipPath id="clip0_5892_21831">
<rect width="120" height="120" fill="white"/>
</clipPath>
</defs>
</svg>
