<svg width="20" height="20" viewBox="0 0 20 20" fill="none" xmlns="http://www.w3.org/2000/svg">
<path fill-rule="evenodd" clip-rule="evenodd" d="M10.4804 2.31443C10.3663 2.28386 10.2462 2.28386 10.1321 2.31443C10.0879 2.32626 10.0137 2.3576 9.86225 2.48393C9.70412 2.61577 9.51272 2.80632 9.2187 3.10035C8.92467 3.39437 8.73412 3.58577 8.60227 3.7439C8.47595 3.8954 8.44461 3.96957 8.43278 4.01374C8.40221 4.12781 8.40221 4.24792 8.43278 4.362C8.44461 4.40617 8.47595 4.48034 8.60227 4.63184C8.73412 4.78997 8.92467 4.98137 9.2187 5.27539L14.7248 10.7815C15.0188 11.0755 15.2102 11.266 15.3683 11.3979C15.5198 11.5242 15.594 11.5556 15.6382 11.5674C15.7522 11.598 15.8723 11.598 15.9864 11.5674C16.0306 11.5556 16.1048 11.5242 16.2563 11.3979C16.4144 11.266 16.6058 11.0755 16.8998 10.7815C17.1938 10.4874 17.3844 10.296 17.5162 10.1379C17.6426 9.98641 17.6739 9.91224 17.6857 9.86808C17.7163 9.754 17.7163 9.63389 17.6857 9.51981C17.6739 9.47565 17.6426 9.40147 17.5162 9.24997C17.3844 9.09184 17.1938 8.90045 16.8998 8.60642L16.288 7.99463C15.875 7.58162 15.875 6.91199 16.288 6.49897C16.5889 6.19807 16.7692 6.01592 16.882 5.8681C16.9339 5.80007 16.9554 5.75934 16.9642 5.73804C16.9706 5.72289 16.9703 5.7186 16.9702 5.71753C16.9703 5.71646 16.9706 5.71178 16.9642 5.69663C16.9554 5.67533 16.9339 5.6346 16.882 5.56657C16.7692 5.41875 16.5889 5.2366 16.288 4.9357L15.0645 3.71213C14.7636 3.41124 14.5814 3.23097 14.4336 3.11818C14.3656 3.06628 14.3248 3.0448 14.3035 3.03592C14.2884 3.0296 14.2841 3.02991 14.283 3.02998C14.2829 3.02999 14.2831 3.02998 14.283 3.02998C14.2824 3.02998 14.2784 3.02912 14.2621 3.03592C14.2408 3.0448 14.2001 3.06628 14.1321 3.11818C14.008 3.21285 13.8597 3.35505 13.6374 3.57622L15.0307 4.9695C15.2747 5.21358 15.2747 5.60931 15.0307 5.85338C14.7866 6.09746 14.3909 6.09746 14.1468 5.85338L11.3937 3.10035C11.0997 2.80632 10.9083 2.61577 10.7502 2.48393C10.5987 2.3576 10.5245 2.32626 10.4804 2.31443ZM12.7534 2.69226L12.2585 2.19735C11.989 1.92777 11.7575 1.69635 11.5507 1.52387C11.3323 1.3418 11.0956 1.18519 10.8039 1.10702C10.4779 1.01966 10.1346 1.01966 9.80856 1.10702C9.51684 1.18519 9.28012 1.3418 9.06175 1.52387C8.85489 1.69635 8.62349 1.92777 8.35392 2.19735L8.31568 2.23559C8.04611 2.50515 7.8147 2.73654 7.64222 2.9434C7.46015 3.16177 7.30354 3.39849 7.22537 3.69021C7.13801 4.01624 7.13801 4.35951 7.22537 4.68553C7.30354 4.97725 7.46015 5.21397 7.64222 5.43234C7.81469 5.63919 8.0461 5.87059 8.31567 6.14014L8.81055 6.63501L6.6355 8.81006L6.14063 8.31518C5.87108 8.04561 5.63968 7.81421 5.43283 7.64173C5.21446 7.45966 4.97774 7.30305 4.68601 7.22488C4.35999 7.13753 4.01672 7.13752 3.6907 7.22488C3.39898 7.30305 3.16226 7.45966 2.94389 7.64173C2.73703 7.81421 2.50563 8.04563 2.23607 8.31521L2.19784 8.35343C1.92826 8.623 1.69684 8.8544 1.52436 9.06126C1.34228 9.27963 1.18568 9.51635 1.10751 9.80807C1.02015 10.1341 1.02015 10.4774 1.10751 10.8034C1.18568 11.0951 1.34228 11.3318 1.52436 11.5502C1.69683 11.7571 1.92824 11.9884 2.19781 12.258L2.21695 12.2771L2.69275 12.7529C2.4707 12.9758 2.27118 13.1816 2.12489 13.3733C1.93828 13.6179 1.78048 13.9116 1.78048 14.2823C1.78048 14.6531 1.93828 14.9467 2.12489 15.1913C2.29483 15.4141 2.5366 15.6558 2.80206 15.9212L4.07897 17.1981C4.34438 17.4636 4.5861 17.7053 4.80883 17.8753C5.05342 18.0619 5.34704 18.2197 5.71782 18.2197C6.08861 18.2197 6.38222 18.0619 6.62681 17.8753C6.81855 17.729 7.02436 17.5295 7.24723 17.3074L7.7422 17.8024C8.01173 18.0719 8.24312 18.3033 8.44997 18.4758C8.66833 18.6579 8.90505 18.8145 9.19678 18.8927C9.5228 18.98 9.86607 18.98 10.1921 18.8927C10.4838 18.8145 10.7205 18.6579 10.9389 18.4758C11.1458 18.3033 11.3771 18.0719 11.6467 17.8024L11.685 17.7641C11.9545 17.4945 12.186 17.2631 12.3584 17.0563C12.5405 16.8379 12.6971 16.6012 12.7753 16.3095C12.8626 15.9834 12.8626 15.6402 12.7753 15.3141C12.6971 15.0224 12.5405 14.7857 12.3584 14.5673C12.186 14.3605 11.9545 14.1291 11.6849 13.8595L11.1901 13.3647L13.3651 11.1896L13.86 11.6845C14.1296 11.9541 14.361 12.1855 14.5678 12.3579C14.7862 12.54 15.0229 12.6966 15.3146 12.7748C15.6407 12.8621 15.9839 12.8621 16.3099 12.7748C16.6017 12.6966 16.8384 12.54 17.0568 12.3579C17.2636 12.1855 17.495 11.954 17.7646 11.6845L17.8028 11.6463C18.0724 11.3767 18.3038 11.1453 18.4763 10.9384C18.6584 10.72 18.815 10.4833 18.8931 10.1916C18.9805 9.86558 18.9805 9.52231 18.8931 9.19629C18.815 8.90456 18.6584 8.66784 18.4763 8.44948C18.3038 8.24261 18.0724 8.0112 17.8028 7.74163L17.3079 7.24674C17.5299 7.02387 17.7295 6.81806 17.8758 6.62633C18.0624 6.38174 18.2202 6.08812 18.2202 5.71733C18.2202 5.34655 18.0624 5.05294 17.8758 4.80834C17.7058 4.58561 17.464 4.34389 17.1986 4.07848L15.9217 2.80157C15.6563 2.53611 15.4145 2.29434 15.1918 2.12441C14.9472 1.93779 14.6536 1.78 14.2828 1.78C13.912 1.77999 13.6184 1.93779 13.3738 2.12441C13.1821 2.27069 12.9763 2.47022 12.7534 2.69226ZM17.1719 7.11075C17.1718 7.11067 17.172 7.11083 17.1719 7.11075ZM12.4813 10.3057L9.69443 7.5189L7.51939 9.69394L10.3062 12.4808L12.4813 10.3057ZM3.57671 13.6369C3.35554 13.8592 3.21334 14.0075 3.11867 14.1316C3.06677 14.1996 3.04529 14.2403 3.03641 14.2616C3.03009 14.2768 3.0304 14.2811 3.03047 14.2821C3.0304 14.2832 3.03009 14.2879 3.03641 14.303C3.04529 14.3243 3.06677 14.3651 3.11867 14.4331C3.23146 14.5809 3.41173 14.7631 3.71262 15.064L4.93619 16.2875C5.23709 16.5884 5.41923 16.7687 5.56706 16.8815C5.63509 16.9334 5.67582 16.9549 5.69712 16.9638C5.71344 16.9706 5.71716 16.9697 5.71782 16.9697C5.71787 16.9697 5.71774 16.9697 5.71782 16.9697C5.71889 16.9698 5.72337 16.9701 5.73853 16.9638C5.75982 16.9549 5.80056 16.9334 5.86859 16.8815C6.01641 16.7687 6.19856 16.5884 6.49945 16.2875C6.91247 15.8745 7.58211 15.8745 7.99512 16.2875L8.60691 16.8993C8.90094 17.1934 9.09233 17.3839 9.25046 17.5157C9.40196 17.6421 9.47614 17.6734 9.5203 17.6852C9.63438 17.7158 9.75449 17.7158 9.86856 17.6852C9.91273 17.6734 9.9869 17.6421 10.1384 17.5157C10.2965 17.3839 10.4879 17.1934 10.782 16.8993C11.076 16.6053 11.2665 16.4139 11.3984 16.2558C11.5247 16.1043 11.556 16.0301 11.5679 15.9859C11.5984 15.8719 11.5984 15.7517 11.5679 15.6377C11.556 15.5935 11.5247 15.5193 11.3984 15.3678C11.2665 15.2097 11.076 15.0183 10.782 14.7243L5.27588 9.21821C4.98186 8.92418 4.79046 8.73363 4.63233 8.60179C4.48083 8.47546 4.40666 8.44412 4.36249 8.43229C4.24841 8.40172 4.1283 8.40172 4.01423 8.43229C3.97006 8.44412 3.89589 8.47546 3.74438 8.60179C3.58626 8.73363 3.39486 8.92418 3.10083 9.21821C2.80681 9.51223 2.61626 9.70363 2.48441 9.86176C2.35809 10.0133 2.32675 10.0874 2.31492 10.1316C2.28435 10.2457 2.28435 10.3658 2.31492 10.4799C2.32675 10.524 2.35809 10.5982 2.48441 10.7497C2.61626 10.9078 2.80681 11.0992 3.10083 11.3933L5.85387 14.1463C6.09795 14.3904 6.09795 14.7861 5.85387 15.0302C5.60979 15.2743 5.21407 15.2743 4.96999 15.0302L3.57671 13.6369Z" fill="white"/>
</svg>
