<svg width="20" height="20" viewBox="0 0 20 20" fill="none" xmlns="http://www.w3.org/2000/svg">
<path fill-rule="evenodd" clip-rule="evenodd" d="M11.415 2.5612C11.2562 1.92767 10.6831 1.4585 10.0003 1.4585C9.31758 1.4585 8.74441 1.92768 8.58566 2.56121C8.55838 2.57506 8.53126 2.58934 8.5043 2.60404L4.50911 4.78252C4.44022 4.82008 4.37311 4.86002 4.30787 4.9022C4.13611 4.83108 3.9478 4.79183 3.75033 4.79183C2.94491 4.79183 2.29199 5.44475 2.29199 6.25016C2.29199 6.73021 2.52394 7.15609 2.88188 7.42183C2.88072 7.45651 2.88014 7.49129 2.88014 7.52615V11.6408C2.88014 11.8079 2.89347 11.973 2.91937 12.1349C2.54022 12.3982 2.29199 12.8369 2.29199 13.3335C2.29199 14.1389 2.94491 14.7918 3.75033 14.7918C4.09665 14.7918 4.41478 14.6711 4.66493 14.4694L5.70139 15.0346L4.0373 18.03C3.86967 18.3317 3.97838 18.7122 4.28012 18.8798C4.58186 19.0475 4.96236 18.9388 5.13 18.637L6.79888 15.633L8.5043 16.563C8.53126 16.5777 8.55838 16.5919 8.58566 16.6058C8.74441 17.2393 9.31758 17.7085 10.0003 17.7085C10.6831 17.7085 11.2562 17.2393 11.415 16.6058C11.4423 16.5919 11.4694 16.5777 11.4964 16.563L13.2018 15.633L14.8707 18.637C15.0383 18.9388 15.4188 19.0475 15.7205 18.8798C16.0223 18.7122 16.131 18.3317 15.9634 18.03L14.2993 15.0346L15.3357 14.4694C15.5859 14.6711 15.904 14.7918 16.2503 14.7918C17.0557 14.7918 17.7087 14.1389 17.7087 13.3335C17.7087 12.8369 17.4604 12.3983 17.0813 12.1349C17.1072 11.973 17.1205 11.8079 17.1205 11.6408V7.52615C17.1205 7.49128 17.1199 7.45651 17.1188 7.42182C17.4767 7.15608 17.7087 6.73021 17.7087 6.25016C17.7087 5.44475 17.0557 4.79183 16.2503 4.79183C16.0529 4.79183 15.8645 4.83108 15.6928 4.9022C15.6275 4.86002 15.5604 4.82008 15.4916 4.78252L11.4964 2.60404C11.4694 2.58933 11.4423 2.57506 11.415 2.5612ZM8.86438 3.83144C9.1317 4.16303 9.54124 4.37516 10.0003 4.37516C10.4594 4.37516 10.869 4.16303 11.1363 3.83144L14.8463 5.85444C14.8109 5.98028 14.792 6.11301 14.792 6.25016C14.792 6.92419 15.2493 7.49142 15.8705 7.65855V11.6408C15.8705 11.7391 15.8628 11.8362 15.8479 11.9314C15.2382 12.1061 14.792 12.6677 14.792 13.3335C14.792 13.3364 14.792 13.3393 14.792 13.3422L13.6922 13.9419L11.8162 10.565C12.1145 10.1781 12.292 9.6932 12.292 9.16683C12.292 7.90118 11.266 6.87516 10.0003 6.87516C8.73467 6.87516 7.70866 7.90118 7.70866 9.16683C7.70866 9.6932 7.88612 10.1781 8.18449 10.565L6.30846 13.9419L5.20863 13.3422C5.20865 13.3393 5.20866 13.3364 5.20866 13.3335C5.20866 12.6677 4.76245 12.1061 4.15275 11.9314C4.13783 11.8362 4.13014 11.7391 4.13014 11.6408V7.65854C4.75139 7.49142 5.20866 6.92419 5.20866 6.25016C5.20866 6.11301 5.18973 5.98028 5.15433 5.85445L8.86438 3.83144ZM12.5947 14.5403L10.8024 11.3142C10.5528 11.4075 10.2825 11.4585 10.0003 11.4585C9.71814 11.4585 9.44787 11.4075 9.19823 11.3142L7.40595 14.5403L8.86438 15.3355C9.1317 15.004 9.54124 14.7918 10.0003 14.7918C10.4594 14.7918 10.869 15.004 11.1363 15.3356L12.5947 14.5403ZM8.95866 9.16683C8.95866 8.59153 9.42503 8.12516 10.0003 8.12516C10.5756 8.12516 11.042 8.59153 11.042 9.16683C11.042 9.74213 10.5756 10.2085 10.0003 10.2085C9.42503 10.2085 8.95866 9.74213 8.95866 9.16683Z" fill="white"/>
</svg>
