<svg width="160" height="160" viewBox="0 0 160 160" fill="none" xmlns="http://www.w3.org/2000/svg">
<path fill-rule="evenodd" clip-rule="evenodd" d="M76.1258 0.587278C74.1575 1.21599 71.1015 3.13714 70.6104 4.05441C70.3347 4.57026 70.1865 4.544 68.5152 3.68332C62.6656 0.671377 55.3958 2.59315 51.8731 8.08305C50.9646 9.49898 50.7855 9.62934 50.038 9.41957C49.5822 9.2917 47.8027 9.18853 46.0832 9.1904C43.2046 9.19384 42.7941 9.27357 40.9018 10.1962C37.6611 11.7765 35.081 14.8219 34.0452 18.2894L33.661 19.5756L31.3079 19.7534C25.2326 20.213 20.219 25.2268 19.7594 31.3022L19.5815 33.6554L18.2954 34.0397C14.8281 35.0754 11.7828 37.6556 10.2024 40.8964C9.27986 42.7888 9.20014 43.1993 9.1967 46.078C9.19483 47.7976 9.29799 49.5771 9.42586 50.0329C9.63563 50.7804 9.50527 50.9596 8.08938 51.8681C2.5934 55.3949 0.677619 62.6609 3.69728 68.525C4.46634 70.0188 4.54919 70.3696 4.16716 70.5162C3.30744 70.846 1.21471 74.1615 0.590396 76.1827C-0.196799 78.7317 -0.196799 81.2665 0.590396 83.8154C1.21471 85.8366 3.30744 89.1521 4.16716 89.482C4.54919 89.6286 4.46634 89.9794 3.69728 91.4732C0.677619 97.3373 2.5934 104.603 8.08938 108.13C9.50527 109.039 9.63563 109.218 9.42586 109.965C9.29799 110.421 9.19483 112.201 9.1967 113.92C9.20014 116.799 9.27986 117.209 10.2024 119.102C11.7834 122.344 14.8281 124.923 18.2982 125.959L19.5878 126.345L19.7607 128.417C19.8557 129.557 20.0911 131.019 20.284 131.665C20.9008 133.73 23.132 136.61 25.226 138.043C27.4635 139.574 28.7043 140.003 31.5864 140.243L33.6591 140.416L34.0443 141.706C35.081 145.176 37.6598 148.221 40.9018 149.802C42.7941 150.725 43.2046 150.804 46.0832 150.808C47.8027 150.81 49.5822 150.706 50.038 150.579C50.7855 150.369 50.9646 150.499 51.8731 151.915C54.5504 156.088 59.6922 158.403 64.5095 157.604C65.6449 157.416 67.4222 156.838 68.4592 156.32C70.0089 155.546 70.3759 155.46 70.5213 155.84C70.8508 156.698 74.1681 158.791 76.187 159.414C80.2005 160.654 84.3854 159.908 87.7949 157.345C88.8397 156.559 89.6947 155.798 89.6947 155.653C89.6947 155.508 90.5035 155.806 91.4923 156.315C97.3409 159.327 104.611 157.404 108.133 151.915C109.042 150.499 109.221 150.369 109.969 150.579C110.424 150.706 112.204 150.81 113.923 150.808C116.802 150.804 117.212 150.725 119.105 149.802C122.347 148.221 124.926 145.176 125.962 141.706L126.347 140.416L128.42 140.243C131.302 140.003 132.543 139.574 134.781 138.043C136.874 136.61 139.106 133.73 139.723 131.665C139.915 131.019 140.151 129.557 140.246 128.417L140.419 126.345L141.708 125.959C145.178 124.923 148.223 122.344 149.804 119.102C150.727 117.209 150.806 116.799 150.81 113.92C150.812 112.201 150.698 110.428 150.557 109.981C150.323 109.242 150.445 109.075 151.893 108.145C157.407 104.607 159.335 97.3492 156.317 91.4885C155.808 90.4996 155.51 89.6908 155.655 89.6908C155.8 89.6908 156.561 88.8358 157.347 87.7909C160.874 83.0989 160.885 76.9803 157.376 72.2129C156.604 71.1649 155.842 70.3074 155.682 70.3074C155.522 70.3074 155.795 69.5061 156.289 68.5266C157.555 66.0164 158.05 62.9898 157.595 60.5431C156.916 56.8918 154.858 53.7555 151.893 51.8528C150.445 50.9236 150.323 50.7563 150.557 50.0173C150.698 49.5702 150.812 47.7976 150.81 46.078C150.806 43.1993 150.727 42.7888 149.804 40.8964C148.223 37.6544 145.178 35.0754 141.708 34.0387L140.419 33.6536L140.246 31.5808C140.006 28.703 139.578 27.4621 138.047 25.2071C137.155 23.8943 136.082 22.8245 134.768 21.9385C132.507 20.4134 131.287 19.9939 128.42 19.7547L126.347 19.5818L125.962 18.2922C124.926 14.8219 122.347 11.7772 119.105 10.1962C117.212 9.27357 116.802 9.19384 113.923 9.1904C112.204 9.18853 110.424 9.2917 109.969 9.41957C109.221 9.62934 109.042 9.49898 108.133 8.08305C104.611 2.59378 97.3409 0.671377 91.4923 3.68269C90.5035 4.19197 89.6947 4.47772 89.6947 4.31765C89.6947 4.1579 88.8372 3.396 87.7892 2.62442C84.3613 0.100816 80.0217 -0.657015 76.1258 0.587278ZM83.6791 5.79517C84.5833 6.22567 85.6968 7.06792 86.1533 7.66661C87.9349 10.0023 90.028 10.2602 92.8863 8.49604C94.4223 7.54813 95.1322 7.31302 96.7766 7.20829C100.354 6.98069 102.935 8.48478 104.723 11.8387C106.249 14.7016 107.691 15.1455 111.891 14.0456C114.483 13.3669 117.341 14.226 119.298 16.2719C120.437 17.4624 121.565 19.7566 121.578 20.9108C121.583 21.3407 121.847 22.087 122.165 22.5694C123.218 24.1672 124.01 24.4955 126.901 24.5337C130.718 24.5843 132.938 25.813 134.552 28.7674C135.352 30.2308 135.465 30.747 135.432 32.791C135.374 36.4348 136.251 37.7472 139.185 38.4047C141.369 38.8943 142.093 39.2473 143.473 40.4934C145.742 42.5437 146.668 45.3856 145.955 48.1102C144.855 52.3105 145.299 53.7526 148.162 55.2786C151.515 57.0663 153.019 59.6477 152.792 63.2252C152.687 64.8697 152.452 65.5797 151.504 67.1157C149.74 69.9741 149.998 72.0672 152.334 73.8489C153.913 75.0535 155.138 77.74 155.138 79.9991C155.138 82.2582 153.913 84.9447 152.334 86.1493C149.998 87.931 149.74 90.0241 151.504 92.8825C152.452 94.4185 152.687 95.1285 152.792 96.773C153.019 100.35 151.515 102.932 148.162 104.72C145.299 106.246 144.855 107.688 145.955 111.888C146.633 114.48 145.774 117.338 143.729 119.295C142.538 120.434 140.244 121.562 139.09 121.575C138.151 121.586 136.751 122.461 136.028 123.489C135.643 124.037 135.493 124.956 135.467 126.923C135.436 129.252 135.311 129.83 134.533 131.26C132.942 134.182 130.707 135.414 126.901 135.465C124.01 135.503 123.218 135.831 122.165 137.429C121.847 137.911 121.583 138.657 121.578 139.087C121.565 140.242 120.437 142.536 119.298 143.726C117.341 145.772 114.483 146.631 111.891 145.953C107.691 144.853 106.249 145.297 104.723 148.159C102.935 151.513 100.354 153.017 96.7766 152.79C95.1322 152.685 94.4223 152.45 92.8863 151.502C90.028 149.738 87.9349 149.996 86.1533 152.332C84.9487 153.911 82.2623 155.136 80.0033 155.136C77.7442 155.136 75.0578 153.911 73.8533 152.332C72.0716 149.996 69.9786 149.738 67.1202 151.502C65.5843 152.45 64.8743 152.685 63.2299 152.79C59.6525 153.017 57.0711 151.513 55.2835 148.159C53.7576 145.297 52.3155 144.853 48.1153 145.953C45.3908 146.666 42.549 145.74 40.4988 143.471C39.2527 142.091 38.8997 141.366 38.4101 139.183C37.7536 136.252 36.4428 135.374 32.7966 135.424C29.3799 135.47 27.0411 134.14 25.4736 131.26C24.6952 129.83 24.5708 129.252 24.5398 126.923C24.5139 124.956 24.3635 124.037 23.9783 123.489C23.2558 122.461 21.8556 121.586 20.9168 121.575C19.7626 121.562 17.4685 120.434 16.278 119.295C14.2322 117.338 13.3731 114.48 14.0518 111.888C15.1516 107.688 14.7077 106.246 11.845 104.72C8.49111 102.932 6.98706 100.35 7.21465 96.773C7.31938 95.1285 7.55447 94.4185 8.50236 92.8825C10.2665 90.0241 10.0086 87.931 7.67296 86.1493C6.09357 84.9447 4.8687 82.2582 4.8687 79.9991C4.8687 77.74 6.09357 75.0535 7.67296 73.8489C10.0086 72.0672 10.2665 69.9741 8.50236 67.1157C7.55447 65.5797 7.31938 64.8697 7.21465 63.2252C6.98706 59.6477 8.49111 57.0663 11.845 55.2786C14.7086 53.7523 15.156 52.2964 14.0477 48.1102C13.3218 45.3677 14.2347 42.5706 16.5337 40.4934C17.9134 39.2473 18.6377 38.8943 20.8214 38.4047C23.7554 37.7472 24.633 36.4348 24.5745 32.791C24.5417 30.747 24.6545 30.2308 25.4542 28.7674C27.0452 25.8558 29.3693 24.5287 32.7966 24.5746C36.4428 24.6237 37.7536 23.7458 38.4101 20.8155C38.8997 18.6317 39.2527 17.9073 40.4988 16.5277C42.549 14.2582 45.3908 13.3322 48.1153 14.0456C52.3155 15.1455 53.7576 14.7016 55.2835 11.8387C57.0711 8.48478 59.6525 6.98069 63.2299 7.20829C64.8743 7.31302 65.5843 7.54813 67.1202 8.49604C69.9076 10.2168 72.1848 9.97919 73.7317 7.80699C75.0566 5.94586 78.4195 4.53494 80.7848 4.84726C81.4726 4.93792 82.775 5.36467 83.6791 5.79517ZM71.2497 17.9705C43.4728 22.0072 21.915 43.7048 17.9471 71.6192C17.3585 75.7613 17.3585 84.2369 17.9471 88.379C20.4866 106.244 30.1055 121.743 44.9071 131.819C48.5977 134.331 49.535 134.57 50.7867 133.318C52.227 131.878 51.7137 130.511 49.1114 128.859C42.3599 124.571 36.5144 118.828 31.9969 112.044C19.0079 92.538 19.0135 67.3495 32.0116 47.9539C36.4362 41.3513 41.3566 36.4307 47.959 32.006C62.7181 22.1145 81.3169 19.5781 98.1356 25.1633C107.572 28.2965 116.977 34.5064 123.316 41.7874C140.644 61.6917 142.551 90.3239 127.995 112.044C123.57 118.647 118.65 123.567 112.048 127.992C97.4644 137.766 79.0598 140.363 62.3408 135.007C60.757 134.5 59.0892 134.085 58.6343 134.085C56.7332 134.085 55.8178 136.735 57.2597 138.063C58.6233 139.318 66.6716 141.462 72.9069 142.23C76.9092 142.723 86.665 142.454 90.6326 141.742C108.354 138.56 123.874 128.017 133.361 112.717C145.624 92.9404 145.624 67.0578 133.361 47.2814C123.374 31.1756 107.183 20.6135 88.3829 17.9411C84.356 17.3687 75.2842 17.3843 71.2497 17.9705ZM77.3431 40.0598C76.3537 40.984 75.8875 42.1635 72.1895 53.0995C68.1444 65.0616 68.1234 65.1379 68.1234 67.9951C68.1234 75.6447 72.7807 81.6592 80.2005 83.5919C88.3223 85.7075 97.0349 80.4036 99.2201 72.0137C100.204 68.2361 99.6825 66.1399 97.6617 65.7507C96.0995 65.4496 95.0969 66.4916 94.8505 68.6717C94.4116 72.5583 92.9004 75.3024 90.1611 77.1872C88.1641 78.5613 86.4181 79.0921 83.8911 79.0943C79.4953 79.0978 75.685 76.6786 73.887 72.7431C73.1124 71.048 72.9914 70.4096 73.0107 68.1189C73.032 65.5816 73.1836 65.0241 76.3699 55.7698C78.205 50.4393 79.7822 45.8676 79.8745 45.6103C79.967 45.3534 80.988 47.534 82.1438 50.4562C84.6736 56.8531 84.813 57.1166 85.8019 57.3645C87.1262 57.6969 88.2232 56.9703 89.5131 54.9069L90.7264 52.9657L91.4973 55.6185C91.9215 57.0772 92.5581 58.5873 92.9119 58.9743C94.2537 60.4418 96.8851 59.4945 96.8851 57.544C96.8851 56.5304 95.1613 50.5738 94.4904 49.2688C93.8973 48.1155 92.3045 47.1745 90.9452 47.1745C89.6709 47.1745 88.0206 48.0874 87.4847 49.0884C87.1443 49.7246 86.9492 49.3832 85.3173 45.2946C83.1649 39.9019 82.4339 39.0437 79.9939 39.0437C78.6621 39.0437 78.2701 39.1941 77.3431 40.0598ZM44.6886 59.4242C44.0718 60.0863 44.0512 60.469 44.0512 71.3184V82.5286L44.8187 83.2958C45.7562 84.2337 46.8242 84.275 47.9168 83.4153L48.7406 82.7675V78.1004V73.4337H53.5863H58.432V78.0689C58.432 82.5096 58.4623 82.7325 59.1554 83.3837C60.1155 84.2853 61.3998 84.25 62.3539 83.2958L63.1214 82.5286V71.4579C63.1214 60.7316 63.1014 60.3618 62.4733 59.5636C61.6614 58.5313 59.9883 58.4341 59.0573 59.3651C58.4939 59.9285 58.432 60.4071 58.432 64.211V68.4315H53.5863H48.7406V64.211C48.7406 60.4071 48.6787 59.9285 48.1153 59.3651C47.2556 58.5053 45.5165 58.5354 44.6886 59.4242ZM104.098 59.5636C103.239 60.6563 103.28 61.7242 104.218 62.6618C104.876 63.3206 105.275 63.4294 107.031 63.4294H109.078L109.082 72.7303C109.086 79.5686 109.191 82.2369 109.48 82.8075C110.298 84.4251 112.772 84.4348 113.605 82.8238C113.998 82.0637 114.08 80.3174 114.08 72.6678V63.4294H116.126C117.882 63.4294 118.281 63.3206 118.939 62.6618C119.877 61.7242 119.919 60.6563 119.059 59.5636L118.411 58.7398H111.579H104.746L104.098 59.5636ZM64.155 89.507L63.2777 90.2611L63.1792 100.215C63.0705 111.223 63.1667 112.552 64.1384 113.458C64.7439 114.022 65.2529 114.076 69.9223 114.076C72.7384 114.076 75.2951 113.941 75.6043 113.776C75.9132 113.61 76.3371 113.062 76.5462 112.557C76.8589 111.802 76.8407 111.474 76.4443 110.707C76.1792 110.195 75.7347 109.688 75.4561 109.581C75.1779 109.474 73.414 109.387 71.5367 109.387H68.1234V106.765V104.143L71.4051 104.021C74.2619 103.916 74.7749 103.812 75.3651 103.222C76.2699 102.317 76.2464 100.844 75.3114 99.849C74.623 99.1162 74.3879 99.0699 71.3516 99.0699H68.1234V96.4125V93.7551H71.5448C74.682 93.7551 75.0372 93.6941 75.8175 93.0229C76.4256 92.4998 76.6685 91.9949 76.6685 91.254C76.6685 90.513 76.4256 90.0081 75.8175 89.4851C75.0022 88.7839 74.7574 88.7529 69.9992 88.7529C65.2001 88.7529 65.0025 88.7785 64.155 89.507ZM90.9049 89.2244C90.4528 89.4701 89.8735 90.2032 89.6172 90.8532C86.2902 99.2925 81.879 111.303 81.879 111.923C81.879 113.57 84.3663 114.715 85.7075 113.686C85.9873 113.471 86.5934 112.342 87.0543 111.176L87.8921 109.058L92.4233 109.144L96.9548 109.231L97.6236 111.019C98.5248 113.431 99.1273 114.076 100.477 114.076C101.822 114.076 102.825 113.167 102.825 111.948C102.825 111.465 101.059 106.365 98.8997 100.615C94.7815 89.6455 94.2975 88.7398 92.569 88.7654C92.1057 88.7723 91.3569 88.9789 90.9049 89.2244ZM108.907 89.5204L108.14 90.2876V101.502V112.717L108.863 113.397C109.538 114.031 109.894 114.076 114.178 114.076C118.352 114.076 118.826 114.02 119.394 113.451C120.265 112.58 120.217 110.932 119.296 110.067C118.661 109.471 118.219 109.387 115.701 109.387H112.829V99.718V90.0488L112.005 89.401C110.913 88.5413 109.845 88.5825 108.907 89.5204ZM40.6123 89.8456L39.8307 90.6781L39.7363 100.642C39.6294 111.938 39.7532 112.942 41.3354 113.603C42.6869 114.168 50.2643 113.779 51.9262 113.06C54.7174 111.852 57.3194 108.343 58.0803 104.76C59.3971 98.5581 57.043 92.5202 52.3483 90.0594C50.8868 89.2934 50.4331 89.2256 46.0832 89.1234L41.3938 89.0133L40.6123 89.8456ZM49.0216 94.0902C50.2062 94.3441 50.8477 94.7171 51.6736 95.6312C53.0273 97.1294 53.4278 98.5272 53.4212 101.727C53.4156 104.549 52.8366 106.189 51.3591 107.569C50.1214 108.726 49.0391 109.074 46.6882 109.074H44.6764V101.415V93.7551H46.0679C46.8332 93.7551 48.1625 93.9058 49.0216 94.0902ZM93.731 100.714C94.4341 102.564 95.0094 104.147 95.0094 104.231C95.0094 104.316 93.8017 104.385 92.3261 104.385C90.8502 104.385 89.6894 104.267 89.7469 104.124C89.8041 103.98 90.4062 102.367 91.085 100.538C91.7637 98.7094 92.3492 97.2441 92.3861 97.2819C92.423 97.3195 93.0283 98.8642 93.731 100.714Z" fill="url(#paint0_linear_5813_54919)"/>
<defs>
<linearGradient id="paint0_linear_5813_54919" x1="80" y1="0" x2="80" y2="160" gradientUnits="userSpaceOnUse">
<stop stop-color="#D580F2"/>
<stop offset="1" stop-color="#7B4A8C"/>
</linearGradient>
</defs>
</svg>
