<svg width="32" height="32" viewBox="0 0 32 32" fill="none" xmlns="http://www.w3.org/2000/svg">
<path fill-rule="evenodd" clip-rule="evenodd" d="M4.33301 13.5242C4.33301 6.9922 9.53969 1.6665 15.9997 1.6665C22.4597 1.6665 27.6663 6.9922 27.6663 13.5242C27.6663 16.6777 26.7676 20.0637 25.1789 22.989C23.5922 25.9107 21.2738 28.4495 18.3737 29.805C16.8671 30.5092 15.1323 30.5092 13.6257 29.805C10.7255 28.4495 8.40717 25.9107 6.82042 22.989C5.23171 20.0637 4.33301 16.6777 4.33301 13.5242ZM15.9997 3.6665C10.6776 3.6665 6.33301 8.06315 6.33301 13.5242C6.33301 16.3203 7.13652 19.3804 8.57795 22.0345C10.0213 24.6922 12.061 26.866 14.4725 27.9932C15.4424 28.4465 16.5569 28.4465 17.5268 27.9932C19.9383 26.866 21.978 24.6922 23.4214 22.0345C24.8628 19.3804 25.6663 16.3203 25.6663 13.5242C25.6663 8.06315 21.3218 3.6665 15.9997 3.6665ZM15.9997 10.3332C14.3428 10.3332 12.9997 11.6763 12.9997 13.3332C12.9997 14.99 14.3428 16.3332 15.9997 16.3332C17.6565 16.3332 18.9997 14.99 18.9997 13.3332C18.9997 11.6763 17.6565 10.3332 15.9997 10.3332ZM10.9997 13.3332C10.9997 10.5717 13.2382 8.33317 15.9997 8.33317C18.7611 8.33317 20.9997 10.5717 20.9997 13.3332C20.9997 16.0946 18.7611 18.3332 15.9997 18.3332C13.2382 18.3332 10.9997 16.0946 10.9997 13.3332Z" fill="#999999"/>
</svg>
