<svg width="20" height="20" viewBox="0 0 20 20" fill="none" xmlns="http://www.w3.org/2000/svg">
<path d="M5.00476 11.1399C5.0287 10.8932 5.22058 10.6393 5.53617 10.5547C5.85176 10.4701 6.14487 10.5941 6.28896 10.7958C6.48962 11.0766 6.87997 11.1416 7.16083 10.941C7.44169 10.7403 7.5067 10.3499 7.30603 10.0691C6.8473 9.42702 6.01192 9.13313 5.21264 9.3473C4.41337 9.56146 3.83685 10.2337 3.76061 11.0191C3.72725 11.3626 3.97873 11.6682 4.32229 11.7015C4.66586 11.7349 4.9714 11.4834 5.00476 11.1399Z" fill="white"/>
<path d="M9.83467 9.8455C9.85862 9.59881 10.0505 9.34491 10.3661 9.26035C10.6817 9.17579 10.9748 9.29974 11.1189 9.5014C11.3195 9.78226 11.7099 9.84727 11.9907 9.6466C12.2716 9.44594 12.3366 9.05558 12.136 8.77473C11.6772 8.13267 10.8418 7.83878 10.0426 8.05294C9.24329 8.26711 8.66677 8.93931 8.59052 9.72472C8.55717 10.0683 8.80864 10.3738 9.15221 10.4072C9.49577 10.4405 9.80132 10.1891 9.83467 9.8455Z" fill="white"/>
<path d="M11.0009 13.5256L11.3733 13.0238C11.6505 13.2295 11.7084 13.621 11.5027 13.8981C11.2989 14.1728 10.9128 14.2321 10.6361 14.0331L10.628 14.0279C10.616 14.0204 10.5926 14.0063 10.5581 13.9885C10.4891 13.953 10.3766 13.9032 10.2238 13.8617C9.92247 13.7799 9.4492 13.7257 8.81903 13.8946C8.18887 14.0634 7.80608 14.347 7.58605 14.5685C7.47448 14.6809 7.40196 14.7802 7.35993 14.8455C7.33894 14.8781 7.32569 14.902 7.31911 14.9145L7.31471 14.9231C7.1746 15.2338 6.81049 15.3754 6.49667 15.2395C6.17992 15.1023 6.03435 14.7343 6.17153 14.4176L6.74505 14.666C6.17153 14.4176 6.17139 14.4179 6.17153 14.4176L6.1721 14.4163L6.17272 14.4149L6.17409 14.4118L6.17737 14.4045L6.18615 14.3856C6.19302 14.3713 6.20196 14.3532 6.21314 14.332C6.23549 14.2896 6.2669 14.2341 6.30881 14.169C6.39258 14.0388 6.51883 13.8692 6.69912 13.6877C7.06282 13.3215 7.63614 12.9174 8.49551 12.6872C9.35488 12.4569 10.0534 12.5201 10.5515 12.6555C10.7984 12.7225 10.9925 12.8063 11.1302 12.8771C11.199 12.9126 11.2539 12.9449 11.2945 12.9705C11.3148 12.9832 11.3316 12.9944 11.3447 13.0034L11.3617 13.0153L11.3682 13.02L11.371 13.022L11.3722 13.0229L11.3733 13.0238C11.3736 13.024 11.3733 13.0238 11.0009 13.5256Z" fill="white"/>
<path fill-rule="evenodd" clip-rule="evenodd" d="M11.044 1.87546L11.0786 1.89164C12.0516 2.3473 12.4888 2.55072 12.9413 2.69434C13.1017 2.74524 13.2635 2.79058 13.4267 2.8303C13.8868 2.94231 14.362 2.99463 15.4227 3.10863L15.4606 3.1127C16.1341 3.18506 16.6942 3.24524 17.1353 3.34616C17.5969 3.45177 18.0139 3.61918 18.3423 3.9646C18.5333 4.16544 18.687 4.39926 18.7972 4.65438C18.9845 5.0879 18.9857 5.541 18.917 6.02016C18.8508 6.4824 18.706 7.04704 18.53 7.73382L17.8168 10.5162C17.2201 12.8442 15.7059 14.1378 14.1866 14.8404C13.582 16.1524 12.6333 17.1579 11.8498 17.8268L11.832 17.8419C11.6232 18.0202 11.4181 18.1954 11.1488 18.3493C10.869 18.5092 10.5453 18.6331 10.0914 18.7603C9.6378 18.8874 9.29732 18.9496 8.97659 18.9574C8.66751 18.9649 8.40372 18.92 8.13779 18.8747L8.11473 18.8708C6.1802 18.5421 3.10483 17.4427 2.18385 13.8495L1.47069 11.0671C1.29465 10.3804 1.14992 9.81573 1.08365 9.35349C1.01496 8.87433 1.01619 8.42124 1.20346 7.98771C1.31367 7.73259 1.46742 7.49878 1.65838 7.29793C1.9868 6.95252 2.40375 6.78511 2.86537 6.6795C3.30649 6.57858 3.86656 6.5184 4.54004 6.44604L4.57795 6.44196C5.0104 6.39548 5.34554 6.35926 5.62201 6.32506L6.143 4.29241C6.31892 3.60598 6.46366 3.04124 6.62747 2.60598C6.79684 2.15594 7.01644 1.75792 7.39418 1.47419C7.61557 1.30791 7.86501 1.18359 8.13088 1.10822C8.58939 0.978225 9.03486 1.05353 9.48278 1.20257C9.91267 1.34561 10.426 1.58601 11.044 1.87546ZM16.606 10.2058C16.2626 11.5456 15.5555 12.4566 14.7205 13.0807C14.8448 12.2686 14.819 11.3764 14.5709 10.4085L13.7951 7.38179C13.9047 7.33928 14.0036 7.26538 14.0771 7.16253C14.2212 6.96087 14.5143 6.83692 14.8299 6.92148C15.1455 7.00605 15.3374 7.25995 15.3613 7.50663C15.3947 7.85019 15.7002 8.10167 16.0438 8.06832C16.3873 8.03497 16.6388 7.72942 16.6055 7.38585C16.5292 6.60045 15.9527 5.92824 15.1534 5.71408C14.5319 5.54753 13.8885 5.68823 13.4174 6.06098C13.4028 6.01936 13.3881 5.9788 13.3732 5.93931C13.2038 5.48927 12.9842 5.09125 12.6065 4.80752C12.3851 4.64124 12.1357 4.51693 11.8698 4.44155C11.4365 4.31871 11.0149 4.3792 10.5918 4.51199C10.5058 4.47549 10.4162 4.44456 10.3235 4.41973C9.52424 4.20556 8.68885 4.49945 8.23012 5.14151C8.13189 5.279 8.09732 5.44273 8.12058 5.5976C7.66166 5.8072 7.36396 5.93098 7.05936 6.02767C7.03378 6.03579 7.00816 6.04377 6.9825 6.05161L7.34489 4.63776C7.53203 3.90761 7.66053 3.40984 7.79736 3.04626C7.9314 2.69009 8.04327 2.54999 8.14489 2.47366C8.24491 2.39853 8.35574 2.34373 8.47183 2.31082C8.58302 2.2793 8.74614 2.27484 9.08813 2.38864C9.44017 2.50578 9.88699 2.7139 10.5485 3.02366L10.593 3.04451C11.5098 3.47387 12.0236 3.71451 12.5631 3.88576C12.7507 3.94528 12.9401 3.99834 13.131 4.04483C13.6805 4.17861 14.2413 4.23887 15.2404 4.34623L15.2891 4.35147C16.0103 4.42897 16.4961 4.48222 16.8565 4.56468C17.2047 4.64434 17.3487 4.73368 17.4364 4.82591C17.5244 4.91851 17.597 5.02812 17.6497 5.15008C17.7054 5.27893 17.7338 5.46513 17.6797 5.84276C17.6242 6.22958 17.4973 6.72806 17.3102 7.45803L16.606 10.2058ZM10.9125 5.72197C10.5605 5.83911 10.1137 6.04723 9.45221 6.35699L9.40769 6.37785C8.4909 6.80719 7.97702 7.04785 7.43755 7.21909C7.25001 7.27862 7.06061 7.33167 6.86967 7.37816C6.32015 7.51195 5.75942 7.5722 4.76032 7.67956L4.71153 7.6848C3.99039 7.76231 3.50456 7.81556 3.14414 7.89802C2.79596 7.97767 2.65197 8.06701 2.56427 8.15925C2.47623 8.25184 2.40365 8.36146 2.35097 8.48341C2.29531 8.61226 2.26686 8.79846 2.321 9.1761C2.37646 9.56292 2.50332 10.0614 2.69042 10.7914L3.39471 13.5391C4.1295 16.4059 6.55926 17.3386 8.32415 17.6385C8.61468 17.6879 8.76785 17.7121 8.94623 17.7077C9.12187 17.7035 9.35092 17.6696 9.75423 17.5566C10.1572 17.4438 10.3727 17.3532 10.5285 17.2641C10.6873 17.1733 10.8103 17.0706 11.0382 16.876C12.429 15.6889 14.0976 13.5962 13.3601 10.7189L12.6558 7.97109C12.4686 7.24095 12.3401 6.74318 12.2033 6.3796C12.0693 6.02343 11.9574 5.88332 11.8558 5.807C11.7558 5.73187 11.6449 5.67706 11.5288 5.64415C11.4177 5.61263 11.2545 5.60818 10.9125 5.72197Z" fill="white"/>
</svg>
