<svg width="20" height="20" viewBox="0 0 20 20" fill="none" xmlns="http://www.w3.org/2000/svg">
<path fill-rule="evenodd" clip-rule="evenodd" d="M15.561 3.05598C15.0297 3.15053 14.3304 3.38192 13.3102 3.72199L9.97688 4.83311C9.41321 5.021 9.04054 5.14621 8.766 5.27393C8.50604 5.39487 8.39364 5.4922 8.32162 5.59212C8.24961 5.69204 8.19281 5.82944 8.16029 6.11431C8.12594 6.41515 8.125 6.80829 8.125 7.40246V9.13278L16.875 6.21612C16.8749 5.18146 16.8716 4.46685 16.7951 3.94549C16.7189 3.42614 16.5884 3.23913 16.4424 3.13392C16.2964 3.02872 16.0777 2.964 15.561 3.05598ZM18.1168 4.99993C18.1066 4.52951 18.0836 4.11695 18.0319 3.76412C17.935 3.10357 17.7195 2.51354 17.1733 2.11987C16.6271 1.72621 15.9992 1.70833 15.3419 1.82532C14.7097 1.93784 13.9232 2.20004 12.9632 2.52003L9.5487 3.65822C9.02672 3.83219 8.58562 3.97921 8.23876 4.14057C7.87006 4.31209 7.55015 4.52467 7.30757 4.86123C7.06499 5.19779 6.96448 5.56851 6.91836 5.97252C6.8948 6.17885 6.88404 6.41019 6.87912 6.66659H6.875V7.29924C6.875 7.32194 6.875 7.34479 6.875 7.36779L6.875 13.333C6.35271 12.9407 5.7035 12.7083 5 12.7083C3.27411 12.7083 1.875 14.1074 1.875 15.8333C1.875 17.5591 3.27411 18.9583 5 18.9583C6.72589 18.9583 8.125 17.5591 8.125 15.8333V10.4504L16.875 7.53373V11.6664C16.3527 11.2741 15.7035 11.0416 15 11.0416C13.2741 11.0416 11.875 12.4407 11.875 14.1666C11.875 15.8925 13.2741 17.2916 15 17.2916C16.7259 17.2916 18.125 15.8925 18.125 14.1666V6.24041C18.125 6.21067 18.125 6.18109 18.125 6.15167V4.99993H18.1168ZM16.875 14.1666C16.875 13.1311 16.0355 12.2916 15 12.2916C13.9645 12.2916 13.125 13.1311 13.125 14.1666C13.125 15.2021 13.9645 16.0416 15 16.0416C16.0355 16.0416 16.875 15.2021 16.875 14.1666ZM6.875 15.8333C6.875 14.7977 6.03553 13.9583 5 13.9583C3.96447 13.9583 3.125 14.7977 3.125 15.8333C3.125 16.8688 3.96447 17.7083 5 17.7083C6.03553 17.7083 6.875 16.8688 6.875 15.8333Z" fill="white"/>
</svg>
