<svg width="111" height="107" viewBox="0 0 111 107" fill="none" xmlns="http://www.w3.org/2000/svg">
<path d="M58.953 21.9216C59.3204 21.5859 59.5394 21.1181 59.5618 20.621C59.5842 20.1239 59.4082 19.6382 59.0725 19.2708C58.7369 18.9035 58.269 18.6845 57.7719 18.6621C57.2748 18.6396 56.7891 18.8156 56.4218 19.1513L34.263 39.3732C33.8956 39.7088 33.6767 40.1767 33.6543 40.6738C33.6318 41.1709 33.8078 41.6566 34.1435 42.0239C34.4791 42.3913 34.947 42.6103 35.4441 42.6327C35.9412 42.6551 36.4269 42.4791 36.7943 42.1435L58.953 21.9216Z" fill="url(#paint0_linear_5892_21789)"/>
<path d="M39.0259 28.0143C39.1103 28.0143 39.1956 28.0199 39.28 28.0199C40.7036 28.018 42.0691 27.4549 43.0803 26.4528C44.0916 25.4507 44.6669 24.0903 44.6817 22.6668C44.6965 21.2432 44.1495 19.8712 43.1594 18.8483C42.1692 17.8253 40.8157 17.234 39.3924 17.2025C37.9691 17.171 36.5907 17.7018 35.5563 18.6799C34.5218 19.658 33.9146 21.0045 33.8664 22.4273C33.8182 23.8501 34.3328 25.2346 35.2987 26.2805C36.2645 27.3264 37.6038 27.9494 39.0259 28.0143ZM38.1531 21.3834C38.4578 21.1034 38.8568 20.9484 39.2706 20.9493H39.3484C39.6764 20.9646 39.9925 21.0767 40.2567 21.2715C40.521 21.4663 40.7217 21.7351 40.8333 22.0438C40.9449 22.3526 40.9626 22.6875 40.884 23.0063C40.8055 23.3251 40.6342 23.6134 40.3919 23.8349C40.2321 23.9839 40.0438 24.0989 39.8384 24.173C39.6329 24.2471 39.4146 24.2788 39.1966 24.2662C38.869 24.2508 38.5533 24.1387 38.2894 23.9441C38.0254 23.7495 37.825 23.4811 37.7134 23.1728C37.6018 22.8644 37.584 22.5299 37.6622 22.2115C37.7405 21.893 37.9113 21.6049 38.1531 21.3834Z" fill="url(#paint1_linear_5892_21789)"/>
<path d="M54.1902 33.2803C52.7676 33.2331 51.3838 33.7484 50.3384 34.7143C49.2931 35.6803 48.6704 37.0192 48.6053 38.4411C48.5402 39.8629 49.0379 41.2532 49.9906 42.3106C50.9433 43.3681 52.2743 44.0076 53.6952 44.0906C53.7796 44.0944 53.8639 44.0963 53.9483 44.0963C55.3584 44.0901 56.7105 43.5338 57.7165 42.5457C58.7226 41.5576 59.3032 40.2158 59.3347 38.806C59.3662 37.3963 58.8462 36.0299 57.8853 34.9978C56.9244 33.9657 55.5986 33.3495 54.1902 33.2803ZM55.0621 39.9094C54.902 40.0579 54.7137 40.1727 54.5083 40.2469C54.303 40.3212 54.0848 40.3533 53.8668 40.3416C53.429 40.3282 53.0142 40.1424 52.7128 39.8246C52.4114 39.5069 52.2477 39.0829 52.2575 38.645C52.2673 38.2071 52.4497 37.7908 52.7649 37.4868C53.0802 37.1828 53.5029 37.0157 53.9408 37.0219H54.0186C54.347 37.0368 54.6636 37.1488 54.9283 37.3437C55.1929 37.5386 55.3939 37.8077 55.5056 38.1168C55.6173 38.426 55.6348 38.7613 55.5558 39.0804C55.4769 39.3995 55.3051 39.688 55.0621 39.9094Z" fill="url(#paint2_linear_5892_21789)"/>
<path d="M110.022 86.098L107.688 74.1805C107.641 73.9388 107.546 73.7088 107.41 73.5036C107.274 73.2984 107.098 73.1221 106.894 72.9848C106.689 72.8474 106.46 72.7516 106.218 72.7029C105.977 72.6543 105.728 72.6536 105.487 72.7011C104.196 72.954 102.868 72.9501 101.578 72.6897C100.289 72.4293 99.0631 71.9174 97.9714 71.1834C96.8797 70.4493 95.9434 69.5075 95.2157 68.4115C94.488 67.3156 93.9833 66.0871 93.7305 64.7961C93.4776 63.5051 93.4815 62.177 93.7419 60.8875C94.0023 59.598 94.5141 58.3725 95.2482 57.2808C95.9822 56.1891 96.9241 55.2527 98.02 54.5251C99.116 53.7974 100.344 53.2927 101.635 53.0398C102.123 52.9442 102.553 52.6587 102.831 52.246C103.108 51.8334 103.21 51.3275 103.115 50.8395L100.779 38.923C100.731 38.6813 100.637 38.4513 100.501 38.2461C100.365 38.0409 100.189 37.8645 99.9851 37.727C99.7807 37.5896 99.5513 37.4937 99.31 37.4449C99.0686 37.3961 98.82 37.3954 98.5783 37.4427L71.5867 42.7302L69.8486 38.0342L76.4411 33.5155C76.6804 33.3515 76.8784 33.1343 77.0196 32.8809C77.1607 32.6274 77.2411 32.3447 77.2545 32.0549C77.2678 31.7652 77.2138 31.4762 77.0965 31.2109C76.9793 30.9456 76.8021 30.711 76.5789 30.5258L70.4289 25.4211L73.8723 18.2089C73.9974 17.9472 74.06 17.6601 74.0553 17.3701C74.0506 17.0801 73.9787 16.7951 73.8452 16.5376C73.7118 16.2801 73.5204 16.057 73.2861 15.886C73.0518 15.715 72.7811 15.6007 72.4952 15.552L64.6202 14.2123L64.0042 6.25297C63.9818 5.96384 63.8926 5.68386 63.7436 5.43503C63.5947 5.18621 63.3901 4.97532 63.1458 4.81895C62.9016 4.66258 62.6245 4.565 62.3361 4.53386C62.0478 4.50273 61.7562 4.5389 61.4842 4.63953L53.9842 7.41359L49.4692 0.815468C49.3052 0.576037 49.0879 0.377941 48.8343 0.236776C48.5808 0.0956104 48.2979 0.0152292 48.008 0.00196089C47.7181 -0.0113074 47.4291 0.0428993 47.1637 0.160313C46.8983 0.277727 46.6638 0.455143 46.4786 0.678593L41.3833 6.82766L34.172 3.38047C33.9107 3.25542 33.6239 3.19265 33.3342 3.19709C33.0445 3.20152 32.7597 3.27303 32.5023 3.40601C32.2449 3.53899 32.0218 3.72982 31.8505 3.96353C31.6792 4.19723 31.5644 4.46745 31.5152 4.75297L30.167 12.628L22.1983 13.2467C21.9091 13.2692 21.6291 13.3585 21.3803 13.5076C21.1315 13.6567 20.9207 13.8614 20.7644 14.1057C20.6081 14.3501 20.5106 14.6273 20.4797 14.9157C20.4487 15.2041 20.485 15.4957 20.5858 15.7677L23.3598 23.2573L16.7786 27.7892C16.5397 27.9535 16.3421 28.1709 16.2014 28.4244C16.0608 28.6779 15.9808 28.9606 15.9678 29.2502C15.9548 29.5399 16.0091 29.8286 16.1266 30.0937C16.244 30.3587 16.4213 30.593 16.6445 30.778L22.7908 35.878L19.3436 43.0902C19.2185 43.3519 19.1559 43.639 19.1606 43.929C19.1653 44.219 19.2372 44.504 19.3707 44.7615C19.5042 45.019 19.6956 45.242 19.9298 45.413C20.1641 45.584 20.4349 45.6984 20.7208 45.747L28.5958 47.0858L28.9061 51.0964L8.05984 55.1764C7.81816 55.2237 7.58815 55.3181 7.38295 55.4542C7.17775 55.5904 7.00139 55.7656 6.86392 55.9699C6.72646 56.1743 6.63059 56.4037 6.5818 56.645C6.533 56.8864 6.53223 57.135 6.57953 57.3767C6.90486 59.0464 6.55455 60.7769 5.60546 62.1886C4.65636 63.6003 3.18601 64.5778 1.51703 64.9067C1.27518 64.9538 1.04497 65.048 0.839559 65.1841C0.63415 65.3201 0.457572 65.4953 0.319918 65.6997C0.182265 65.904 0.0862365 66.1335 0.0373217 66.375C-0.011593 66.6165 -0.0124342 66.8652 0.0348456 67.107L6.0911 98.0005C6.13835 98.2421 6.23275 98.4722 6.3689 98.6774C6.50506 98.8826 6.6803 99.0589 6.88462 99.1964C7.08895 99.3338 7.31835 99.4297 7.55973 99.4785C7.80111 99.5273 8.04973 99.5281 8.29141 99.4808C9.96254 99.1557 11.6944 99.5072 13.1065 100.458C14.5186 101.409 15.4954 102.882 15.8223 104.553C15.906 104.979 16.135 105.363 16.4703 105.639C16.8056 105.915 17.2264 106.066 17.6608 106.067C17.7822 106.067 17.9034 106.055 18.0227 106.032L108.546 88.2983C109.033 88.202 109.462 87.9162 109.739 87.5036C110.016 87.0911 110.118 86.5855 110.022 86.098ZM32.223 45.3327C32.1907 44.9161 32.0202 44.5223 31.7386 44.2137C31.457 43.9051 31.0804 43.6994 30.6686 43.6292L23.7977 42.4611L26.8052 36.1705C26.9847 35.7937 27.0334 35.3679 26.9436 34.9603C26.8537 34.5528 26.6305 34.1868 26.3092 33.9205L20.9458 29.4758L26.6908 25.528C27.0348 25.2916 27.2902 24.9472 27.4163 24.5493C27.5425 24.1514 27.5323 23.7228 27.3873 23.3314L24.9686 16.8008L31.9145 16.2617C32.3308 16.2293 32.7242 16.0589 33.0326 15.7775C33.341 15.4961 33.5467 15.1198 33.617 14.7083L34.7936 7.83547L41.0852 10.843C41.4618 11.0226 41.8876 11.0714 42.2952 10.9818C42.7027 10.8921 43.0687 10.6691 43.3352 10.348L47.778 4.98734L51.7155 10.7361C51.9515 11.0808 52.2959 11.3369 52.694 11.4636C53.0921 11.5903 53.5211 11.5804 53.913 11.4355L60.4539 9.01484L60.993 15.9627C61.0255 16.379 61.196 16.7726 61.4776 17.081C61.7592 17.3894 62.1357 17.595 62.5473 17.6652L69.4183 18.8342L66.4117 25.1248C66.232 25.5014 66.183 25.9271 66.2725 26.3347C66.362 26.7422 66.5848 27.1082 66.9058 27.3748L72.2692 31.8261L66.5186 35.7636C66.1738 35.9998 65.9178 36.3444 65.7913 36.7427C65.6648 37.141 65.6749 37.5702 65.8202 37.962L67.8564 43.4586L43.3642 48.2595H43.3398C43.3322 48.2613 43.3247 48.2635 43.3173 48.2661L32.613 50.3661L32.223 45.3327ZM9.52235 95.6098H9.44078L4.04266 68.0558C5.94339 67.2948 7.57094 65.979 8.71335 64.28C9.85576 62.5809 10.4601 60.5772 10.4477 58.5298L42.2214 52.3048L50.7414 95.8048L18.9686 102.029C18.2141 100.139 16.9114 98.5174 15.228 97.3735C13.5446 96.2296 11.5576 95.6154 9.52235 95.6098ZM54.422 95.0792L45.9011 51.5839L97.4636 41.4833L99.1014 49.8448C95.9543 50.9229 93.3039 53.1038 91.6401 55.9845C89.9764 58.8651 89.4118 62.2507 90.0507 65.5154C90.6896 68.7801 92.4888 71.7031 95.1158 73.744C97.7428 75.785 101.02 76.8059 104.341 76.618L105.979 84.9786L54.422 95.0792Z" fill="url(#paint3_linear_5892_21789)"/>
<path d="M81.0142 55.2721C80.9186 54.7842 80.633 54.3542 80.2204 54.0768C79.8078 53.7994 79.3019 53.6972 78.8139 53.7928L56.9476 58.0762C56.4902 58.1654 56.0824 58.4218 55.8037 58.7954C55.525 59.169 55.3955 59.633 55.4403 60.0969C55.4852 60.5608 55.7012 60.9914 56.0462 61.3047C56.3913 61.618 56.8406 61.7915 57.3067 61.7915C57.4282 61.7915 57.5493 61.7799 57.6686 61.7568L79.5339 57.4725C79.7756 57.4252 80.0056 57.3308 80.2108 57.1947C80.416 57.0585 80.5924 56.8832 80.7298 56.6789C80.8673 56.4746 80.9632 56.2452 81.0119 56.0038C81.0607 55.7624 81.0615 55.5138 81.0142 55.2721Z" fill="url(#paint4_linear_5892_21789)"/>
<path d="M83.2798 66.8434C83.2326 66.6017 83.1382 66.3717 83.002 66.1665C82.8659 65.9613 82.6906 65.7849 82.4863 65.6474C82.282 65.51 82.0526 65.4141 81.8112 65.3653C81.5698 65.3165 81.3212 65.3157 81.0795 65.363L59.2133 69.6474C58.7558 69.7366 58.348 69.9931 58.0693 70.3666C57.7907 70.7402 57.6611 71.2042 57.706 71.6681C57.7508 72.132 57.9668 72.5626 58.3119 72.8759C58.6569 73.1892 59.1063 73.3627 59.5723 73.3627C59.6938 73.3629 59.8151 73.3509 59.9342 73.3271L81.7995 69.0437C82.0412 68.9964 82.2712 68.902 82.4764 68.7659C82.6816 68.6297 82.858 68.4545 82.9954 68.2501C83.1329 68.0458 83.2288 67.8164 83.2776 67.575C83.3264 67.3337 83.3271 67.085 83.2798 66.8434Z" fill="url(#paint5_linear_5892_21789)"/>
<path d="M83.3461 76.9404L61.4799 81.2183C61.0214 81.3064 60.6122 81.5625 60.3326 81.9364C60.0529 82.3103 59.9228 82.7751 59.9677 83.2398C60.0126 83.7046 60.2293 84.1359 60.5754 84.4493C60.9214 84.7627 61.372 84.9357 61.8389 84.9345C61.9604 84.9346 62.0817 84.9227 62.2008 84.8989L84.0661 80.6154C84.3111 80.5718 84.545 80.4798 84.7541 80.3448C84.9632 80.2098 85.1434 80.0345 85.284 79.8292C85.4247 79.6238 85.523 79.3926 85.5734 79.1488C85.6237 78.9051 85.6251 78.6537 85.5773 78.4095C85.5295 78.1652 85.4335 77.9329 85.295 77.7261C85.1565 77.5193 84.9782 77.3422 84.7706 77.205C84.5629 77.0678 84.33 76.9734 84.0854 76.9272C83.8409 76.8809 83.5895 76.8839 83.3461 76.9358V76.9404Z" fill="url(#paint6_linear_5892_21789)"/>
<path d="M38.0532 81.1882C37.7019 79.4112 36.6997 77.8295 35.243 76.7531C33.7862 75.6766 31.9799 75.183 30.1782 75.3691L28.8235 68.4532L29.6326 68.2947C30.162 68.1917 30.7106 68.303 31.1581 68.604C31.6056 68.9051 31.9154 69.3714 32.0194 69.9007L32.0466 70.0385C32.1423 70.5265 32.428 70.9566 32.8409 71.234C33.2537 71.5115 33.7598 71.6136 34.2479 71.5178C34.736 71.4221 35.166 71.1364 35.4435 70.7236C35.7209 70.3108 35.823 69.8047 35.7272 69.3166L35.7001 69.1797C35.4031 67.6753 34.5218 66.35 33.2493 65.4943C31.9768 64.6387 30.4169 64.3224 28.9116 64.615L28.1026 64.7735L27.7416 62.9303C27.6943 62.6887 27.5998 62.4587 27.4636 62.2535C27.3274 62.0484 27.1521 61.872 26.9477 61.7346C26.7434 61.5972 26.5139 61.5014 26.2725 61.4526C26.0311 61.4039 25.7825 61.4032 25.5408 61.4505C25.0528 61.5461 24.6226 61.8317 24.3451 62.2444C24.0676 62.6571 23.9654 63.1632 24.061 63.6513L24.4285 65.5263C22.6883 66.0316 21.2003 67.17 20.2572 68.7174C19.3141 70.2647 18.9842 72.109 19.3326 73.8873C19.6809 75.6656 20.6822 77.2491 22.1393 78.3263C23.5965 79.4035 25.404 79.8964 27.2063 79.7078L28.561 86.6219L27.7482 86.7841C27.4861 86.8355 27.2164 86.8347 26.9546 86.7819C26.6927 86.729 26.4439 86.6251 26.2222 86.4761C26.0006 86.327 25.8105 86.1358 25.6627 85.9132C25.515 85.6907 25.4126 85.4412 25.3613 85.1791C25.316 84.9355 25.2228 84.7034 25.0872 84.496C24.9516 84.2887 24.7762 84.1103 24.5713 83.9711C24.3663 83.832 24.1358 83.7348 23.893 83.6853C23.6503 83.6357 23.4002 83.6347 23.157 83.6824C22.9139 83.7301 22.6827 83.8255 22.4767 83.9631C22.2706 84.1007 22.0939 84.2778 21.9567 84.4841C21.8195 84.6903 21.7246 84.9218 21.6774 85.165C21.6302 85.4082 21.6316 85.6583 21.6816 85.901C21.8271 86.6466 22.1181 87.3562 22.538 87.9893C22.958 88.6223 23.4987 89.1663 24.1291 89.5902C24.7595 90.0141 25.4673 90.3095 26.212 90.4596C26.9567 90.6096 27.7237 90.6114 28.4691 90.4647L29.2782 90.3063L29.6391 92.1485C29.7225 92.5749 29.9515 92.9591 30.2868 93.2355C30.6221 93.5118 31.043 93.6631 31.4776 93.6635C31.5993 93.6635 31.7208 93.6518 31.8404 93.6288C32.3283 93.5331 32.7583 93.2476 33.0357 92.835C33.3131 92.4223 33.4153 91.9164 33.3197 91.4285L32.9522 89.5535C34.6928 89.0468 36.1811 87.9078 37.1249 86.36C38.0687 84.8122 38.3998 82.9675 38.0532 81.1882ZM24.4979 75.4019C23.9679 75.0465 23.5451 74.5531 23.275 73.9749C23.0049 73.3968 22.8979 72.7559 22.9654 72.1213C23.033 71.4868 23.2725 70.8828 23.6583 70.3745C24.044 69.8661 24.5612 69.4728 25.1541 69.2369L26.4779 75.9963C25.7729 76.0033 25.0824 75.796 24.4979 75.4019ZM32.2294 85.8363L30.9057 79.0863C31.7209 79.0812 32.5123 79.3609 33.1434 79.877C33.7745 80.393 34.2056 81.1132 34.3625 81.9132C34.5194 82.7131 34.3922 83.5428 34.0027 84.259C33.6133 84.9752 32.9862 85.533 32.2294 85.8363Z" fill="url(#paint7_linear_5892_21789)"/>
<defs>
<linearGradient id="paint0_linear_5892_21789" x1="46.608" y1="18.6602" x2="46.608" y2="42.6346" gradientUnits="userSpaceOnUse">
<stop stop-color="#D580F2"/>
<stop offset="1" stop-color="#7B4A8C"/>
</linearGradient>
<linearGradient id="paint1_linear_5892_21789" x1="39.2727" y1="17.2012" x2="39.2727" y2="28.0199" gradientUnits="userSpaceOnUse">
<stop stop-color="#D580F2"/>
<stop offset="1" stop-color="#7B4A8C"/>
</linearGradient>
<linearGradient id="paint2_linear_5892_21789" x1="53.9678" y1="33.2773" x2="53.9678" y2="44.0963" gradientUnits="userSpaceOnUse">
<stop stop-color="#D580F2"/>
<stop offset="1" stop-color="#7B4A8C"/>
</linearGradient>
<linearGradient id="paint3_linear_5892_21789" x1="55.0287" y1="0" x2="55.0287" y2="106.067" gradientUnits="userSpaceOnUse">
<stop stop-color="#D580F2"/>
<stop offset="1" stop-color="#7B4A8C"/>
</linearGradient>
<linearGradient id="paint4_linear_5892_21789" x1="68.2404" y1="53.7578" x2="68.2404" y2="61.7915" gradientUnits="userSpaceOnUse">
<stop stop-color="#D580F2"/>
<stop offset="1" stop-color="#7B4A8C"/>
</linearGradient>
<linearGradient id="paint5_linear_5892_21789" x1="70.506" y1="65.3281" x2="70.506" y2="73.3627" gradientUnits="userSpaceOnUse">
<stop stop-color="#D580F2"/>
<stop offset="1" stop-color="#7B4A8C"/>
</linearGradient>
<linearGradient id="paint6_linear_5892_21789" x1="72.7856" y1="76.8945" x2="72.7856" y2="84.9345" gradientUnits="userSpaceOnUse">
<stop stop-color="#D580F2"/>
<stop offset="1" stop-color="#7B4A8C"/>
</linearGradient>
<linearGradient id="paint7_linear_5892_21789" x1="28.6923" y1="61.4155" x2="28.6923" y2="93.6635" gradientUnits="userSpaceOnUse">
<stop stop-color="#D580F2"/>
<stop offset="1" stop-color="#7B4A8C"/>
</linearGradient>
</defs>
</svg>
