<svg width="160" height="145" viewBox="0 0 160 145" fill="none" xmlns="http://www.w3.org/2000/svg">
<path fill-rule="evenodd" clip-rule="evenodd" d="M74.6889 0.147459C60.4303 1.27133 46.5974 6.66139 35.5585 15.3955C32.6187 17.7212 27.0654 23.1639 24.5062 26.2273C15.3528 37.1844 9.12486 52.5048 8.27098 66.1647L8.07016 69.3753H6.75873C2.00056 69.3753 -1.25379 73.7956 0.465518 77.923C1.00895 79.2277 14.7088 92.4491 16.1373 93.0477C17.5762 93.6506 20.2699 93.593 21.493 92.9327C22.9781 92.1315 36.1985 79.4078 36.7438 78.2551C37.9553 75.6944 37.5524 73.3944 35.5382 71.3744C34.1768 70.0087 32.6121 69.38 30.568 69.3772C29.5124 69.3756 29.4059 69.3023 29.537 68.6706C29.6173 68.2828 29.7747 66.9791 29.8865 65.7732C30.1667 62.7533 31.7127 56.7497 33.1018 53.2875C37.3394 42.7267 45.4319 33.4808 55.209 28.0287C71.9855 18.6738 92.09 19.4515 107.989 30.0706C111.965 32.7259 115.486 35.9277 119.244 40.3038C121.416 42.8335 122.198 43.5104 123.943 44.3717C125.781 45.2792 126.341 45.4057 128.549 45.4092C131.529 45.4139 133.752 44.5371 135.979 42.4783C138.918 39.7613 140.083 35.1067 138.761 31.3618C137.095 26.6448 128.276 17.615 119.886 12.0377C110.628 5.88301 100.815 2.15589 89.8363 0.624821C85.6906 0.0465991 78.7466 -0.172349 74.6889 0.147459ZM86.7132 5.79437C104.14 7.73326 120.287 16.301 130.906 29.2428C133.432 32.3202 134.113 33.9359 133.687 35.8356C133.156 38.2033 131.034 39.9317 128.658 39.9317C126.611 39.9317 125.683 39.3908 123.71 37.0488C114.619 26.2549 103.83 19.7077 90.7355 17.0378C85.9933 16.0711 76.7877 15.8469 71.9939 16.5814C63.1181 17.9417 54.6824 21.3237 47.5172 26.3949C43.7197 29.0827 37.0442 35.7705 34.3177 39.6185C33.1581 41.2551 31.2279 44.5675 30.0286 46.9794C26.2961 54.485 24.5215 61.0343 24.1905 68.5252C23.9209 74.6266 24.2155 75.0135 29.1279 75.0135C31.4975 75.0135 31.931 75.0902 31.846 75.4939C31.7023 76.1777 19.0456 88.2083 18.5828 88.1011C17.9063 87.9448 5.30833 75.5604 5.57036 75.3095C5.70903 75.1763 7.20535 75.0203 8.8953 74.9624C11.7593 74.8641 12.0154 74.8011 12.6706 74.0368C13.2962 73.3073 13.3964 72.7538 13.5785 69.0251C14.8069 43.8712 30.0714 21.4048 52.8001 11.2981C58.8113 8.62502 66.399 6.54925 72.815 5.82287C76.1665 5.44355 83.4254 5.42851 86.7132 5.79437ZM75.4697 34.9401C60.0131 37.0469 47.5691 48.0547 43.7603 62.9895C39.4488 79.8973 47.6881 97.8504 63.3643 105.705C68.6555 108.356 73.6467 109.54 79.686 109.576C84.4258 109.604 87.2938 109.187 91.3979 107.875C110.084 101.901 121.088 82.016 116.236 62.9895C112.656 48.9499 101.19 38.1125 87.0224 35.3764C83.8526 34.7644 78.2987 34.5545 75.4697 34.9401ZM85.3449 40.7048C98.7562 43.0603 109.048 53.3818 111.396 66.8322C113.788 80.5263 106.81 94.403 94.365 100.7C78.6757 108.639 59.4803 102.315 51.5755 86.603C43.6217 70.793 49.9908 51.5309 65.7878 43.6203C71.8068 40.6061 78.8262 39.5596 85.3449 40.7048ZM78.2375 48.8165C77.4957 49.4564 77.3605 49.842 77.2462 51.644L77.1138 53.7304L75.4594 54.5154C73.4324 55.477 71.4736 57.3927 70.3677 59.4942C69.6278 60.9009 69.5363 61.4196 69.5363 64.207C69.5363 67.0014 69.6265 67.5116 70.3749 68.9343C71.4708 71.0176 74.251 73.5513 76.1612 74.2075C76.9835 74.4901 78.4992 74.8067 79.5298 74.9117C82.9194 75.2559 84.7156 76.7509 85.1709 79.606C85.4352 81.264 84.5144 83.4155 83.1115 84.4176C81.8732 85.3018 79.3284 85.5903 77.6541 85.0362C77.0132 84.8241 75.7311 83.9621 74.8048 83.1208C73.4577 81.8973 72.9 81.5913 72.0167 81.5913C69.6097 81.5913 68.5403 84.3017 70.1775 86.2528C71.4545 87.7751 73.3488 89.1417 75.258 89.9185L77.0313 90.6399L77.2168 92.7457C77.3733 94.5236 77.5338 94.9653 78.249 95.5823C79.3331 96.5176 80.6679 96.5136 81.7592 95.5723C82.5009 94.9324 82.6362 94.5468 82.7505 92.7448L82.8829 90.6583L84.5372 89.8734C86.5642 88.9118 88.5231 86.9961 89.629 84.8946C90.3689 83.4879 90.4604 82.9692 90.4604 80.1817C90.4604 77.3874 90.3701 76.8772 89.6218 75.4545C88.5259 73.3712 85.7456 70.8375 83.8355 70.1813C83.0131 69.8987 81.4975 69.5821 80.4668 69.4771C77.0772 69.1329 75.2811 67.6378 74.8257 64.7827C74.5615 63.1248 75.4822 60.9732 76.8851 59.9712C78.1235 59.087 80.6683 58.7985 82.3426 59.3526C82.9835 59.5646 84.2655 60.4267 85.1919 61.268C86.1182 62.109 87.1204 62.8138 87.4193 62.8335C89.4328 62.9673 90.6171 62.006 90.6171 60.2381C90.6171 58.2832 88.1327 55.851 84.7168 54.4615L82.9653 53.7489L82.7798 51.6431C82.6234 49.8652 82.4628 49.4235 81.7476 48.8065C80.6636 47.8712 79.3287 47.8752 78.2375 48.8165ZM138.507 51.4561C137.03 52.2567 123.798 64.9932 123.252 66.1397C122.04 68.6887 122.445 70.9953 124.458 73.0144C125.805 74.3654 127.384 75.0084 129.36 75.0116L130.469 75.0135L130.226 77.5976C129.506 85.2664 126.397 93.7894 121.798 100.696C119.491 104.162 114.272 109.72 110.911 112.29C100.809 120.015 88.2685 123.767 76.1702 122.685C66.7991 121.846 59.345 119.236 51.6785 114.107C48.2949 111.843 42.9024 106.802 39.6181 102.831C38.5396 101.527 37.5799 100.771 36.0433 100.012C34.1516 99.0786 33.6778 98.9771 31.2823 98.9903C27.9755 99.0084 25.8308 99.9315 23.6414 102.279C21.4252 104.655 20.8171 106.237 20.8171 109.625C20.8171 113.075 21.2818 114.219 24.1211 117.762C33.6072 129.597 47.3142 138.364 62.3077 142.187C68.7252 143.823 73.0211 144.348 79.9983 144.348C86.9324 144.348 91.2077 143.829 97.6443 142.207C121.042 136.31 139.928 118.967 148.033 95.9372C149.989 90.3789 151.832 81.0607 151.832 76.7256V75.0135H153.19C157.995 75.0135 161.26 70.6135 159.531 66.4679C158.977 65.1392 145.338 51.9607 143.889 51.3533C142.423 50.7394 139.736 50.7908 138.507 51.4561ZM148.245 62.6064C151.784 66.0328 154.566 68.9453 154.427 69.0787C154.288 69.2118 152.791 69.3684 151.101 69.4264C148.237 69.5247 147.981 69.5877 147.326 70.352C146.7 71.0815 146.6 71.635 146.418 75.3637C145.731 89.4267 140.667 102.892 131.93 113.883C119.458 129.574 100.138 138.896 80.0642 138.91C64.3284 138.92 49.0935 133.313 36.895 123.021C31.8026 118.725 26.813 112.97 26.3533 110.863C25.6296 107.546 28.0332 104.457 31.3385 104.457C33.4882 104.457 34.3736 105.027 36.8628 108.017C39.6943 111.416 44.1401 115.559 47.6734 118.089C53.4566 122.231 61.5981 125.765 69.0672 127.373C71.9296 127.99 73.2794 128.081 79.686 128.093C87.9571 128.107 91.0628 127.667 97.4319 125.574C119.19 118.426 134.901 97.951 135.823 75.5419C136.059 69.7929 135.723 69.3753 130.869 69.3753C128.499 69.3753 128.066 69.2986 128.151 68.8948C128.295 68.2067 140.952 56.1811 141.42 56.2876C141.634 56.3365 144.705 59.1797 148.245 62.6064Z" fill="url(#paint0_linear_5813_54909)"/>
<defs>
<linearGradient id="paint0_linear_5813_54909" x1="80" y1="0" x2="80" y2="144.348" gradientUnits="userSpaceOnUse">
<stop stop-color="#D580F2"/>
<stop offset="1" stop-color="#7B4A8C"/>
</linearGradient>
</defs>
</svg>
