<svg width="240" height="240" viewBox="0 0 240 240" fill="none" xmlns="http://www.w3.org/2000/svg">
<path fill-rule="evenodd" clip-rule="evenodd" d="M105.246 0.11893C104.331 0.224516 101.549 0.542211 99.0652 0.82471C80.0995 2.97959 61.6707 10.3166 45.9746 21.961C35.9129 29.4252 21.538 44.7698 22.3743 47.1532C22.7452 48.2105 23.9361 49.1195 24.9498 49.1195C25.4148 49.1195 27.5186 47.0275 29.7874 44.3095C34.6986 38.4263 43.7595 29.7002 48.9755 25.8311C62.4242 15.854 77.7994 9.28609 94.5486 6.36349C101.76 5.10491 117.533 4.63095 124.793 5.45451C150.683 8.3912 173.61 18.9286 191.716 36.2137C211.531 55.1299 222.622 79.6341 223.945 107.419C224.272 114.276 224.545 115.02 226.853 115.361C227.794 115.5 227.223 116.223 222.542 120.825L217.146 126.129L211.959 120.829C207.749 116.529 206.949 115.498 207.713 115.36C209.35 115.063 210.318 113.832 210.317 112.046C210.316 108.658 208.813 97.5499 207.644 92.2922C199.501 55.6545 173.015 29.192 136.553 21.2661C128.55 19.5265 122.992 18.9399 114.517 18.9399C98.6273 18.9399 84.1256 22.237 70.4767 28.9527C40.3939 43.7548 22.5075 71.1671 19.1685 107.588C17.7906 122.617 21.3464 139.727 28.9715 154.761C43.2608 182.935 71.08 202.519 102.527 206.544C105.629 206.941 108.634 207.587 109.261 207.993C111.726 209.587 112.75 214.852 111.124 217.568C109.643 220.044 108.03 220.569 102.856 220.258C92.2669 219.621 77.9182 215.651 66.9732 210.33C45.3579 199.822 28.032 182.48 16.7908 160.101C8.32659 143.251 4.42277 125.744 5.07127 107.543C5.60804 92.4569 9.32073 78.2498 16.2032 64.9446C18.2518 60.9845 18.3041 60.7817 17.5634 59.6654C16.6558 58.2988 14.9119 58.1393 13.8497 59.3261C12.6602 60.655 8.52057 69.154 6.59314 74.2253C4.28585 80.2958 1.86159 89.799 0.829418 96.8192C-0.362503 104.924 -0.256956 118.654 1.06333 127.253C5.03942 153.144 17.2482 176.514 36.3684 194.832C54.5648 212.264 76.577 222.537 101.345 225.155C106.102 225.657 107.007 225.632 109.255 224.932C116.169 222.781 119.109 214.118 115.211 207.382C113.186 203.883 110.904 202.716 103.917 201.61C80.3301 197.874 62.6781 189.184 48.3789 174.271C42.5077 168.148 38.3367 162.231 34.2531 154.231C27.4311 140.866 24.4216 128.202 24.4216 112.859C24.4216 87.3292 34.2436 64.1445 52.1419 47.4254C65.8141 34.6538 83.827 26.6382 104.695 24.0404C130.825 20.7869 157.474 29.5871 176.884 47.8792C189.544 59.809 198.143 74.2056 202.433 90.6497C203.817 95.9572 205.066 103.986 205.079 107.661L205.088 110.124H202.817C200.069 110.124 198.432 111.121 198.432 112.793C198.432 114.474 215.596 132.18 217.226 132.18C218.837 132.18 235.696 114.828 235.899 112.961C236.095 111.161 234.547 110.124 231.662 110.124C229.117 110.124 228.877 109.733 228.866 105.573C228.862 104.231 228.531 100.641 228.129 97.5954C221.468 47.1195 181.824 8.57046 128.78 0.988485C124.1 0.319777 108.497 -0.256954 105.246 0.11893ZM113.209 37.8946C112.468 38.3211 112.377 39.2545 112.377 46.4892C112.377 53.7559 112.468 54.6864 113.247 55.3819C114.377 56.3913 115.368 56.365 116.345 55.3002C117.487 54.0548 117.521 39.247 116.385 38.125C115.532 37.2827 114.415 37.2019 113.209 37.8946ZM76.0664 47.9543C75.6414 48.3738 75.2934 49.0458 75.2934 49.447C75.2934 50.3593 78.8587 56.7873 79.7858 57.5466C80.8403 58.4105 82.5547 57.9356 83.3316 56.5644C84 55.3856 83.9221 55.1449 81.6642 51.4025C79.1354 47.2114 77.7091 46.333 76.0664 47.9543ZM148.81 49.7061C145.451 54.9112 145.121 56.0022 146.528 57.2589C147.655 58.2665 149.128 58.2477 150.035 57.2144C151.178 55.9107 154.216 50.2772 154.216 49.4597C154.216 48.3574 152.881 47.2424 151.561 47.2424C150.68 47.2424 150.018 47.8356 148.81 49.7061ZM112.948 64.6992C112.522 65.1197 112.377 70.3511 112.377 85.347C112.377 103.445 112.302 105.432 111.617 105.432C110.368 105.432 107.762 108.384 107.108 110.541C106.418 112.812 106.983 115.875 108.465 117.902C109.866 119.818 113.055 121.08 115.713 120.77L118.019 120.5L127.188 128.452C135.07 135.288 136.575 136.403 137.917 136.403C140.006 136.403 141.379 134.997 141.379 132.858C141.379 130.949 141.978 131.566 130.571 121.716C122.997 115.177 122.853 115.016 122.845 113.157C122.834 110.547 121.073 107.313 118.915 105.939L117.132 104.805V85.0335C117.132 70.2816 116.987 65.1192 116.561 64.6992C116.248 64.3895 115.435 64.1361 114.755 64.1361C114.075 64.1361 113.262 64.3895 112.948 64.6992ZM48.9403 74.7279C47.1831 76.4628 48.5462 78.1311 54.057 80.9899C56.9267 82.4784 58.3274 82.4141 58.9687 80.7632C59.602 79.1353 58.6397 77.9241 55.1614 75.9706C51.3527 73.8321 50.1018 73.582 48.9403 74.7279ZM174.065 76.1578C170.83 78.048 170.381 78.4751 170.381 79.6595C170.381 80.5746 170.757 81.2512 171.552 81.7656C172.673 82.4906 172.866 82.446 176.105 80.7205C181.298 77.9537 182.374 76.5097 180.569 74.7279C179.38 73.5548 178.003 73.8574 174.065 76.1578ZM39.1601 111.063C38.0157 112.192 37.9711 112.865 38.9495 114.243C39.6641 115.251 39.9622 115.286 47.6714 115.286C54.8001 115.286 55.7372 115.195 56.4399 114.428C57.5358 113.233 57.4212 111.72 56.1698 110.855C55.3221 110.268 53.632 110.124 47.612 110.124C40.7448 110.124 40.0306 110.204 39.1601 111.063ZM173.339 110.855C172.107 111.707 171.957 113.49 173.029 114.549C173.65 115.161 175.14 115.286 181.798 115.286C189.549 115.286 189.845 115.251 190.56 114.243C191.538 112.865 191.494 112.192 190.349 111.063C189.479 110.204 188.765 110.124 181.897 110.124C175.877 110.124 174.187 110.268 173.339 110.855ZM179.25 139.968C166.398 142.26 154.636 149.466 147.419 159.467C140.947 168.437 136.989 182.193 137.76 193.036C139.553 218.275 160.539 238.565 186.257 239.925C200.748 240.692 214.392 235.529 224.827 225.33C239.182 211.299 243.709 191.318 236.871 172.173C234.061 164.308 230.499 158.765 224.692 153.219C218.634 147.433 212.746 144.016 204.355 141.419C197.135 139.183 186.953 138.595 179.25 139.968ZM52.6431 145.338C50.776 146.368 48.9869 147.522 48.6679 147.902C47.8849 148.833 48.4426 150.798 49.6735 151.449C50.7299 152.007 52.6335 151.237 57.1079 148.446C59.3054 147.075 59.7622 145.543 58.3816 144.18C57.2776 143.091 56.3938 143.269 52.6431 145.338ZM200.333 145.293C219.771 150.286 233.797 167.065 234.914 186.662C235.358 194.461 233.429 203.465 229.738 210.818C224.217 221.816 213.741 230.051 201.047 233.374C194.507 235.086 184.193 235.204 177.842 233.64C160.369 229.336 148.569 217.695 144.116 200.368C143.227 196.911 143.057 195.007 143.079 188.727C143.102 181.916 143.225 180.828 144.409 177.012C149.609 160.24 163.417 147.76 180.239 144.626C185.565 143.633 195.107 143.95 200.333 145.293ZM79.9607 167.962C78.7978 168.878 75.2934 175.057 75.2934 176.19C75.2934 176.758 75.8187 177.548 76.4819 177.977C77.5631 178.676 77.7728 178.679 78.803 178.013C79.9926 177.244 83.8512 171.054 83.8512 169.915C83.8512 169.081 82.1558 167.375 81.3271 167.375C80.9848 167.375 80.3701 167.639 79.9607 167.962ZM112.948 170.285C112.549 170.679 112.377 173.257 112.377 178.872C112.377 187.468 112.522 188.023 114.755 188.023C116.988 188.023 117.132 187.468 117.132 178.872C117.132 170.277 116.988 169.721 114.755 169.721C114.075 169.721 113.262 169.975 112.948 170.285ZM169.374 172.219C166.673 173.214 164.29 174.83 162.933 176.586C161.871 177.96 161.764 178.371 162.213 179.345C162.504 179.974 163.3 180.627 163.983 180.796C164.985 181.044 165.562 180.785 166.971 179.457C169.223 177.333 170.399 176.761 172.513 176.761C177.398 176.761 179.794 181.097 177.574 185.921C177.097 186.958 174.481 190.128 171.761 192.965C162.426 202.699 161.348 203.91 161.348 204.647C161.348 205.054 161.775 205.808 162.298 206.324C163.186 207.201 163.883 207.263 172.758 207.263C181.633 207.263 182.33 207.201 183.218 206.324C183.741 205.808 184.169 205.069 184.169 204.682C184.169 204.295 183.741 203.556 183.218 203.04C182.364 202.197 181.633 202.101 176.047 202.101H169.827L175.215 196.444C182.992 188.28 184.481 185.244 183.232 180.104C181.82 174.296 174.713 170.253 169.374 172.219ZM201.362 172.42C199.862 173.677 187.878 196.281 188.058 197.513C188.327 199.361 190.025 199.74 198.075 199.748L205.563 199.755V202.732C205.563 205.021 205.764 205.889 206.433 206.486C208.637 208.455 210.318 206.875 210.318 202.833V199.877L212.457 199.639C215.091 199.345 216.023 198.63 216.023 196.898C216.023 195.274 214.909 194.593 212.251 194.593H210.318V189.994C210.318 185.121 209.99 184.269 208.117 184.269C206.048 184.269 205.563 185.388 205.563 190.168V194.593H200.057H194.551L196.664 190.721C202.63 179.792 205.088 174.923 205.088 174.038C205.088 173.174 203.518 171.599 202.657 171.599C202.483 171.599 201.9 171.968 201.362 172.42Z" fill="url(#paint0_linear_5813_54935)"/>
<defs>
<linearGradient id="paint0_linear_5813_54935" x1="120" y1="0" x2="120" y2="240" gradientUnits="userSpaceOnUse">
<stop stop-color="#D580F2"/>
<stop offset="1" stop-color="#7B4A8C"/>
</linearGradient>
</defs>
</svg>
