<svg width="32" height="32" viewBox="0 0 32 32" fill="none" xmlns="http://www.w3.org/2000/svg">
<path fill-rule="evenodd" clip-rule="evenodd" d="M23.2637 2.3335C22.0657 2.33346 21.0667 2.33343 20.2737 2.44005C19.4366 2.55259 18.6809 2.80015 18.0736 3.40744C17.4663 4.01474 17.2188 4.77047 17.1062 5.60753C16.9996 6.40056 16.9996 7.39951 16.9997 8.59747V8.73616C16.9996 9.93412 16.9996 10.9331 17.1062 11.7261C17.2188 12.5632 17.4663 13.3189 18.0736 13.9262C18.6809 14.5335 19.4366 14.7811 20.2737 14.8936C21.0667 15.0002 22.0657 15.0002 23.2636 15.0002H23.4023C24.6003 15.0002 25.5993 15.0002 26.3923 14.8936C27.2294 14.7811 27.9851 14.5335 28.5924 13.9262C29.1997 13.3189 29.4473 12.5632 29.5598 11.7261C29.6664 10.9331 29.6664 9.93413 29.6663 8.73616V8.59751C29.6664 7.39953 29.6664 6.40057 29.5598 5.60753C29.4473 4.77047 29.1997 4.01474 28.5924 3.40744C27.9851 2.80015 27.2294 2.55259 26.3923 2.44005C25.5993 2.33343 24.6003 2.33346 23.4024 2.3335H23.2637ZM19.4878 4.82166C19.6616 4.6479 19.9249 4.50494 20.5402 4.42221C21.1842 4.33562 22.0477 4.3335 23.333 4.3335C24.6184 4.3335 25.4818 4.33562 26.1258 4.42221C26.7411 4.50494 27.0044 4.6479 27.1782 4.82166C27.3519 4.99541 27.4949 5.25874 27.5776 5.87402C27.6642 6.51807 27.6663 7.38148 27.6663 8.66683C27.6663 9.95218 27.6642 10.8156 27.5776 11.4596C27.4949 12.0749 27.3519 12.3383 27.1782 12.512C27.0044 12.6858 26.7411 12.8287 26.1258 12.9115C25.4818 12.998 24.6184 13.0002 23.333 13.0002C22.0477 13.0002 21.1842 12.998 20.5402 12.9115C19.9249 12.8287 19.6616 12.6858 19.4878 12.512C19.3141 12.3383 19.1711 12.0749 19.0884 11.4596C19.0018 10.8156 18.9997 9.95218 18.9997 8.66683C18.9997 7.38148 19.0018 6.51807 19.0884 5.87402C19.1711 5.25874 19.3141 4.99541 19.4878 4.82166Z" fill="#999999"/>
<path fill-rule="evenodd" clip-rule="evenodd" d="M8.59702 17.0002C7.39906 17.0001 6.40007 17.0001 5.60704 17.1067C4.76998 17.2193 4.01425 17.4668 3.40695 18.0741C2.79966 18.6814 2.5521 19.4371 2.43956 20.2742C2.33294 21.0672 2.33297 22.0662 2.33301 23.2641V23.4028C2.33297 24.6008 2.33294 25.5998 2.43956 26.3928C2.5521 27.2299 2.79966 27.9856 3.40695 28.5929C4.01425 29.2002 4.76998 29.4477 5.60704 29.5603C6.40008 29.6669 7.39904 29.6669 8.59702 29.6668H8.73567C9.93365 29.6669 10.9326 29.6669 11.7257 29.5603C12.5627 29.4477 13.3184 29.2002 13.9257 28.5929C14.533 27.9856 14.7806 27.2299 14.8931 26.3928C14.9998 25.5998 14.9997 24.6008 14.9997 23.4029V23.2642C14.9997 22.0662 14.9998 21.0672 14.8931 20.2742C14.7806 19.4371 14.533 18.6814 13.9257 18.0741C13.3184 17.4668 12.5627 17.2193 11.7257 17.1067C10.9326 17.0001 9.93367 17.0001 8.73571 17.0002H8.59702ZM4.82117 19.4883C4.99492 19.3146 5.25825 19.1716 5.87353 19.0889C6.51758 19.0023 7.381 19.0002 8.66634 19.0002C9.95169 19.0002 10.8151 19.0023 11.4592 19.0889C12.0744 19.1716 12.3378 19.3146 12.5115 19.4883C12.6853 19.6621 12.8282 19.9254 12.911 20.5407C12.9976 21.1847 12.9997 22.0482 12.9997 23.3335C12.9997 24.6188 12.9976 25.4823 12.911 26.1263C12.8282 26.7416 12.6853 27.0049 12.5115 27.1787C12.3378 27.3524 12.0744 27.4954 11.4592 27.5781C10.8151 27.6647 9.95169 27.6668 8.66634 27.6668C7.381 27.6668 6.51758 27.6647 5.87353 27.5781C5.25825 27.4954 4.99492 27.3524 4.82117 27.1787C4.64741 27.0049 4.50445 26.7416 4.42173 26.1263C4.33514 25.4823 4.33301 24.6188 4.33301 23.3335C4.33301 22.0482 4.33514 21.1847 4.42173 20.5407C4.50445 19.9254 4.64741 19.6621 4.82117 19.4883Z" fill="#999999"/>
<path fill-rule="evenodd" clip-rule="evenodd" d="M2.33301 8.66683C2.33301 5.16903 5.16854 2.3335 8.66634 2.3335C12.1641 2.3335 14.9997 5.16903 14.9997 8.66683C14.9997 12.1646 12.1641 15.0002 8.66634 15.0002C5.16854 15.0002 2.33301 12.1646 2.33301 8.66683ZM8.66634 4.3335C6.27311 4.3335 4.33301 6.2736 4.33301 8.66683C4.33301 11.0601 6.27311 13.0002 8.66634 13.0002C11.0596 13.0002 12.9997 11.0601 12.9997 8.66683C12.9997 6.2736 11.0596 4.3335 8.66634 4.3335Z" fill="#999999"/>
<path fill-rule="evenodd" clip-rule="evenodd" d="M16.9997 23.3335C16.9997 19.8357 19.8352 17.0002 23.333 17.0002C26.8308 17.0002 29.6663 19.8357 29.6663 23.3335C29.6663 26.8313 26.8308 29.6668 23.333 29.6668C19.8352 29.6668 16.9997 26.8313 16.9997 23.3335ZM23.333 19.0002C20.9398 19.0002 18.9997 20.9403 18.9997 23.3335C18.9997 25.7267 20.9398 27.6668 23.333 27.6668C25.7262 27.6668 27.6663 25.7267 27.6663 23.3335C27.6663 20.9403 25.7262 19.0002 23.333 19.0002Z" fill="#999999"/>
</svg>
