<svg width="251" height="512" viewBox="0 0 251 512" fill="none" xmlns="http://www.w3.org/2000/svg">
<path d="M249.542 118.605H250.379C250.449 118.605 250.591 118.823 250.591 118.968V177.968C250.591 178.041 250.449 178.259 250.379 178.259H249.542V178.621H248.202L248.202 118.315L249.542 118.315V118.605Z" fill="#454545"/>
<path fill-rule="evenodd" clip-rule="evenodd" d="M3.09328 190.898H1.75344V190.668H1.11867C1.04815 190.668 0.907881 190.451 0.907732 190.306V153.367C0.837387 153.222 1.04804 153.077 1.11867 153.077H1.75344V152.58H3.09328V190.898Z" fill="#454545"/>
<path d="M3.09277 141.662H1.75293V141.32H1.11914C1.04863 141.32 0.907227 141.102 0.907227 140.957L0.907227 104.019C0.907227 103.873 1.04863 103.728 1.11914 103.728H1.75293V103.345H3.09277V141.662Z" fill="#454545"/>
<path d="M3.41199 87.8337H2.07214V87.6169H1.48035C1.4099 87.6169 1.26869 87.3998 1.26843 87.2546L1.26843 68.531C1.26843 68.3858 1.40984 68.2409 1.48035 68.2409H2.07214V67.7312H3.41199V87.8337Z" fill="#454545"/>
<rect x="2.91064" y="1.89542" width="245.739" height="510" rx="42.486" fill="#191919"/>
<path d="M219.063 1.89542C235.403 1.89545 248.649 15.1124 248.649 31.4159V482.375C248.649 498.678 235.403 511.895 219.063 511.895H32.4966C16.1567 511.895 2.91064 498.678 2.91064 482.375V31.4159C2.91064 15.1125 16.1567 1.89564 32.4966 1.89542L219.063 1.89542ZM32.4966 3.9794C17.3105 3.97962 4.99951 16.2637 4.99951 31.4159V482.375C4.99951 497.527 17.3105 509.81 32.4966 509.81H219.063C234.249 509.81 246.56 497.527 246.56 482.375V31.4159C246.56 16.2636 234.249 3.97943 219.063 3.9794H32.4966Z" fill="#454545"/>
<path d="M220.422 10.5909C210.128 10.5909 193.019 10.5909 192.004 10.5909C189.539 10.5909 187.944 12.4121 187.364 15.6904C185.407 27.3463 179.027 28.1477 177.143 28.1477C175.548 28.1477 76.0844 28.1477 74.4171 28.1477C72.5322 28.1477 66.0801 27.2735 64.1953 15.6904C63.6878 12.4121 62.0929 10.5909 59.5556 10.5909C58.4682 10.5909 41.4318 10.5909 31.1375 10.5909C20.8432 10.5909 11.6364 21.5183 11.6364 31.9358C11.6364 42.3533 11.6364 470.928 11.6364 483.312C11.6364 496.206 24.6855 503.2 30.92 503.2C34.3273 503.2 217.232 503.2 220.64 503.2C226.874 503.2 239.923 496.206 239.923 483.312C239.923 470.928 239.923 37.8367 239.923 31.9358C239.996 21.5183 230.716 10.5909 220.422 10.5909Z" fill="#1F1F1F"/>
<path d="M59.5552 9.89607C62.4571 9.89607 64.3232 11.9673 64.8823 15.5787C65.6985 20.5942 67.4161 23.8608 69.7417 25.7203C71.3057 26.9708 72.9544 27.4527 74.4175 27.4527H177.142C178.623 27.4527 180.238 26.9881 181.792 25.7476C184.106 23.8991 185.829 20.6257 186.678 15.5699C187.317 11.9601 189.177 9.89607 192.004 9.89607L220.422 9.89607C230.888 9.89627 240.696 20.8948 240.62 31.9361V483.312C240.62 489.417 237.799 494.69 233.065 498.626C229.164 501.869 224.199 503.895 220.639 503.895H30.9204C27.3607 503.895 22.3956 501.869 18.4946 498.626C13.7607 494.69 10.94 489.417 10.9399 483.312L10.9399 31.9361C10.9399 20.8635 20.6955 9.89627 31.1372 9.89607H59.5552ZM31.1372 11.2857C21.5042 11.2859 12.3325 21.5965 12.3325 31.9361V483.312C12.3325 488.975 14.952 493.871 19.3862 497.557C23.0505 500.604 27.7086 502.505 30.9204 502.505H220.639C223.851 502.505 228.509 500.604 232.173 497.557C236.608 493.871 239.227 488.975 239.227 483.312V31.9312C239.299 21.6243 230.079 11.2859 220.422 11.2857H192.004C189.948 11.2857 188.583 12.8013 188.051 15.8053C187.15 21.1728 185.264 24.7543 182.662 26.8326C180.837 28.2902 178.917 28.8424 177.142 28.8424H74.4175C72.6591 28.8424 70.7045 28.2715 68.8706 26.8053C66.2566 24.7153 64.3765 21.1377 63.5073 15.7965C63.0428 12.7955 61.682 11.2857 59.5552 11.2857H31.1372Z" fill="#454545"/>
<path fill-rule="evenodd" clip-rule="evenodd" d="M144.933 20.6556C147.295 20.6556 149.21 18.7891 149.21 16.4867C149.21 14.1842 147.295 12.3177 144.933 12.3177C142.571 12.3177 140.656 14.1842 140.656 16.4867C140.656 18.7891 142.571 20.6556 144.933 20.6556Z" fill="#454545"/>
<rect x="102.553" y="14.5917" width="30.7161" height="3.78994" rx="1.89497" fill="#454545"/>
<g clip-path="url(#clip0_112_277)">
<path d="M172.214 169.552C172.547 169.829 172.951 169.965 173.352 169.965C173.863 169.965 174.371 169.746 174.723 169.322C175.353 168.566 175.25 167.442 174.493 166.812L146.08 143.155C145.324 142.525 144.2 142.628 143.569 143.385C142.941 144.141 143.043 145.265 143.799 145.894L172.214 169.552Z" fill="url(#paint0_linear_112_277)"/>
<path d="M78.6348 169.964C79.0368 169.964 79.4414 169.829 79.7747 169.552L108.189 145.894C108.945 145.265 109.048 144.141 108.418 143.384C107.788 142.628 106.665 142.526 105.908 143.156L77.495 166.813C76.7379 167.443 76.6353 168.566 77.2652 169.322C77.6168 169.746 78.1249 169.964 78.6348 169.964Z" fill="url(#paint1_linear_112_277)"/>
<path d="M99.8588 111.929H137.399C138.383 111.929 139.181 111.131 139.181 110.147C139.181 109.162 138.383 108.365 137.399 108.365H99.8588C98.8746 108.365 98.0763 109.162 98.0763 110.147C98.0763 111.131 98.8746 111.929 99.8588 111.929Z" fill="url(#paint2_linear_112_277)"/>
<path d="M152.128 118.714H99.8582C98.874 118.714 98.0757 119.512 98.0757 120.497C98.0757 121.481 98.874 122.278 99.8582 122.278H152.128C153.113 122.278 153.911 121.481 153.911 120.497C153.911 119.512 153.113 118.714 152.128 118.714Z" fill="url(#paint3_linear_112_277)"/>
<path d="M99.8585 91.2297H125.994C126.978 91.2297 127.776 90.4314 127.776 89.4472C127.776 88.4639 126.978 87.6656 125.994 87.6656H99.8585C98.8743 87.6656 98.0759 88.4639 98.0759 89.4472C98.0759 90.4314 98.8743 91.2297 99.8585 91.2297Z" fill="url(#paint4_linear_112_277)"/>
<path d="M115.598 99.7977C115.598 100.782 116.396 101.579 117.38 101.579H130.271C131.255 101.579 132.053 100.782 132.053 99.7977C132.053 98.8135 131.255 98.0152 130.271 98.0152H117.38C116.396 98.0152 115.598 98.8135 115.598 99.7977Z" fill="url(#paint5_linear_112_277)"/>
<path d="M99.8596 101.58H111.44C112.424 101.58 113.223 100.782 113.223 99.7982C113.223 98.814 112.424 98.0157 111.44 98.0157H99.8596C98.8754 98.0157 98.077 98.814 98.077 99.7982C98.077 100.782 98.8754 101.58 99.8596 101.58Z" fill="url(#paint6_linear_112_277)"/>
<path d="M165.935 73.5752L156.384 95.8609L147.912 85.7718C147.28 85.0183 146.156 84.9204 145.402 85.553C144.648 86.1866 144.55 87.3108 145.184 88.0643L155.517 100.37C155.859 100.776 156.36 101.006 156.882 101.006C156.968 101.006 157.055 101 157.143 100.987C157.754 100.896 158.276 100.495 158.519 99.9259L169.211 74.9787C169.599 74.0741 169.18 73.0268 168.275 72.6386C167.371 72.2513 166.323 72.6706 165.935 73.5752Z" fill="url(#paint7_linear_112_277)"/>
<path d="M184.454 100.802L180.747 97.7158C182.581 94.0885 183.61 90.007 183.61 85.7306C183.61 80.8948 182.299 76.1588 179.821 72.0362C179.313 71.1921 178.218 70.9202 177.375 71.4274C176.532 71.9346 176.259 73.0295 176.766 73.8727C178.912 77.4405 180.046 81.5412 180.046 85.7297C180.046 96.7197 172.234 106.231 161.469 108.344C160.005 108.633 158.501 108.779 157 108.779C144.291 108.779 133.952 98.439 133.952 85.7297C133.952 73.0222 144.291 62.6832 157 62.6832C158.501 62.6832 160.004 62.8296 161.469 63.118C165.641 63.9374 169.505 65.904 172.643 68.8071C173.366 69.4745 174.494 69.4306 175.162 68.7082C175.83 67.9859 175.785 66.858 175.063 66.1896C171.439 62.8388 166.976 60.5674 162.158 59.6207C160.467 59.2884 158.732 59.119 157 59.119C150.958 59.119 145.383 61.1442 140.91 64.549L140.594 64.2853C132.135 57.2385 119.853 57.2385 111.391 64.2853L110.59 64.9537H93.8998C85.7891 64.9537 79.19 71.551 79.19 79.6607V91.2165L67.1334 101.254C67.0977 101.269 67.062 101.284 67.0263 101.301C66.4001 101.594 66.0009 102.223 66.0009 102.914V151.925C66.0009 152.909 66.7983 153.707 67.7825 153.707C68.7667 153.707 69.5651 152.909 69.5651 151.925V106.717L111.392 141.544C115.622 145.067 120.808 146.829 125.994 146.828C131.179 146.828 136.365 145.067 140.593 141.544L182.422 106.717V166.041C182.422 171.222 178.208 175.436 173.027 175.436H78.9593C73.7783 175.436 69.5641 171.222 69.5641 166.041V159.053C69.5641 158.069 68.7658 157.272 67.7816 157.272C66.7983 157.272 66 158.069 66 159.053V166.041C66 173.186 71.8136 179 78.9593 179H173.027C180.173 179 185.986 173.186 185.986 166.041V102.963C185.986 102.962 185.986 102.961 185.986 102.96C186.008 102.097 185.741 101.874 184.454 100.802ZM135.277 64.9537H116.709C122.48 61.7722 129.508 61.7722 135.277 64.9537ZM79.19 95.8536V110.094L70.639 102.974L79.19 95.8536ZM138.313 138.806C131.175 144.751 120.813 144.751 113.672 138.805L82.7541 113.061V79.6607C82.7541 73.5157 87.7538 68.5169 93.8998 68.5169H111.241H111.247H136.723C132.775 73.1604 130.389 79.1718 130.389 85.7306C130.389 100.405 142.327 112.343 157 112.343C158.732 112.343 160.468 112.175 162.157 111.841C164.672 111.348 167.045 110.499 169.234 109.362V113.06L138.313 138.806ZM172.798 110.093V107.139C175.173 105.381 177.237 103.243 178.906 100.821C179.685 101.469 180.628 102.255 181.42 102.914L172.798 110.093Z" fill="url(#paint8_linear_112_277)"/>
</g>
<defs>
<linearGradient id="paint0_linear_112_277" x1="159.147" y1="142.742" x2="159.147" y2="169.965" gradientUnits="userSpaceOnUse">
<stop stop-color="#D580F2"/>
<stop offset="0.9999" stop-color="#7B4A8C"/>
</linearGradient>
<linearGradient id="paint1_linear_112_277" x1="92.8416" y1="142.743" x2="92.8416" y2="169.964" gradientUnits="userSpaceOnUse">
<stop stop-color="#D580F2"/>
<stop offset="0.9999" stop-color="#7B4A8C"/>
</linearGradient>
<linearGradient id="paint2_linear_112_277" x1="118.628" y1="108.365" x2="118.628" y2="111.929" gradientUnits="userSpaceOnUse">
<stop stop-color="#D580F2"/>
<stop offset="0.9999" stop-color="#7B4A8C"/>
</linearGradient>
<linearGradient id="paint3_linear_112_277" x1="125.993" y1="118.714" x2="125.993" y2="122.278" gradientUnits="userSpaceOnUse">
<stop stop-color="#D580F2"/>
<stop offset="0.9999" stop-color="#7B4A8C"/>
</linearGradient>
<linearGradient id="paint4_linear_112_277" x1="112.926" y1="87.6656" x2="112.926" y2="91.2297" gradientUnits="userSpaceOnUse">
<stop stop-color="#D580F2"/>
<stop offset="0.9999" stop-color="#7B4A8C"/>
</linearGradient>
<linearGradient id="paint5_linear_112_277" x1="123.825" y1="98.0152" x2="123.825" y2="101.579" gradientUnits="userSpaceOnUse">
<stop stop-color="#D580F2"/>
<stop offset="0.9999" stop-color="#7B4A8C"/>
</linearGradient>
<linearGradient id="paint6_linear_112_277" x1="105.65" y1="98.0157" x2="105.65" y2="101.58" gradientUnits="userSpaceOnUse">
<stop stop-color="#D580F2"/>
<stop offset="0.9999" stop-color="#7B4A8C"/>
</linearGradient>
<linearGradient id="paint7_linear_112_277" x1="157.061" y1="72.4943" x2="157.061" y2="101.006" gradientUnits="userSpaceOnUse">
<stop stop-color="#D580F2"/>
<stop offset="0.9999" stop-color="#7B4A8C"/>
</linearGradient>
<linearGradient id="paint8_linear_112_277" x1="125.994" y1="59.0002" x2="125.994" y2="179" gradientUnits="userSpaceOnUse">
<stop stop-color="#D580F2"/>
<stop offset="0.9999" stop-color="#7B4A8C"/>
</linearGradient>
<clipPath id="clip0_112_277">
<rect width="120" height="120" fill="white" transform="translate(66 59)"/>
</clipPath>
</defs>
</svg>
